<svg width="22" height="23" viewBox="0 0 22 23" fill="none" xmlns="http://www.w3.org/2000/svg">
<path d="M8.31774 3.16844L14.4161 6.0958C14.8855 6.32109 15.387 6.37754 15.8982 6.26301C16.2327 6.18807 16.4 6.15059 16.5347 6.13521C18.2075 5.94419 19.2502 7.26813 19.2502 8.79057V9.62608C19.2502 11.1485 18.2075 12.4725 16.5347 12.2815C16.4 12.2661 16.2327 12.2286 15.8982 12.1537C15.387 12.0391 14.8855 12.0956 14.4161 12.3209L8.31774 15.2482C6.9179 15.9203 6.21793 16.2562 5.43748 15.9943C4.65712 15.7324 4.38927 15.1704 3.85348 14.0465C2.38242 10.9603 2.38242 7.45644 3.85348 4.37012C4.38927 3.2462 4.65712 2.68424 5.43748 2.42234C6.21793 2.16044 6.9179 2.49644 8.31774 3.16844Z" stroke="#111111" stroke-width="1.375" stroke-linecap="round" stroke-linejoin="round"/>
<path d="M11.4969 19.54L12.864 20.6667C15.9454 18.2227 15.569 17.0573 15.569 12.4167H14.5296C14.1079 15.0392 13.113 16.2813 11.7402 17.1806C10.8946 17.7344 10.7202 18.8998 11.4969 19.54Z" stroke="#111111" stroke-width="1.375" stroke-linecap="round" stroke-linejoin="round"/>
<path d="M15.1252 11.9583V6.45833" stroke="#111111" stroke-width="1.375" stroke-linecap="round" stroke-linejoin="round"/>
</svg>
