<svg width="20" height="20" viewBox="0 0 20 20" fill="none" xmlns="http://www.w3.org/2000/svg">
<g clip-path="url(#clip0_11_654)">
<path d="M9.58331 17.5H4.99998C4.55795 17.5 4.13403 17.3244 3.82147 17.0118C3.50891 16.6993 3.33331 16.2754 3.33331 15.8333V5.83332C3.33331 5.3913 3.50891 4.96737 3.82147 4.65481C4.13403 4.34225 4.55795 4.16666 4.99998 4.16666H15C15.442 4.16666 15.8659 4.34225 16.1785 4.65481C16.4911 4.96737 16.6666 5.3913 16.6666 5.83332V10.8333" stroke="#111111" stroke-width="1.25" stroke-linecap="round" stroke-linejoin="round"/>
<path d="M13.3333 2.5V5.83333" stroke="#111111" stroke-width="1.25" stroke-linecap="round" stroke-linejoin="round"/>
<path d="M6.66669 2.5V5.83333" stroke="#111111" stroke-width="1.25" stroke-linecap="round" stroke-linejoin="round"/>
<path d="M3.33331 9.16666H16.6666" stroke="#111111" stroke-width="1.25" stroke-linecap="round" stroke-linejoin="round"/>
<path d="M12.5 15.8333L14.1667 17.5L17.5 14.1667" stroke="#111111" stroke-width="1.25" stroke-linecap="round" stroke-linejoin="round"/>
</g>
<defs>
<clipPath id="clip0_11_654">
<rect width="20" height="20" fill="white"/>
</clipPath>
</defs>
</svg>
