<svg width="19" height="18" viewBox="0 0 19 18" fill="none" xmlns="http://www.w3.org/2000/svg">
<path d="M15.7499 16.5V14.25C15.7499 12.1287 15.7499 11.0681 15.0909 10.409C14.4319 9.75 13.3712 9.75 11.2499 9.75L9.74991 11.25L8.24991 9.75C6.12859 9.75 5.06793 9.75 4.40892 10.409C3.74991 11.0681 3.74991 12.1287 3.74991 14.25V16.5" stroke="#95C22B" stroke-width="1.125" stroke-linecap="round" stroke-linejoin="round"/>
<path d="M12.7499 9.75V13.875" stroke="#95C22B" stroke-width="1.125" stroke-linecap="round" stroke-linejoin="round"/>
<path d="M7.12505 9.75V12.75M7.12505 12.75C7.95347 12.75 8.62505 13.4216 8.62505 14.25V15M7.12505 12.75C6.29662 12.75 5.62505 13.4216 5.62505 14.25V15" stroke="#95C22B" stroke-width="1.125" stroke-linecap="round" stroke-linejoin="round"/>
<path d="M12.3749 4.87494V4.12494C12.3749 2.67519 11.1997 1.49994 9.74991 1.49994C8.30016 1.49994 7.12491 2.67519 7.12491 4.12494V4.87494C7.12491 6.32469 8.30016 7.49994 9.74991 7.49994C11.1997 7.49994 12.3749 6.32469 12.3749 4.87494Z" stroke="#95C22B" stroke-width="1.125" stroke-linecap="round" stroke-linejoin="round"/>
<path d="M13.3124 14.4374C13.3124 14.7481 13.0606 14.9999 12.7499 14.9999C12.4393 14.9999 12.1874 14.7481 12.1874 14.4374C12.1874 14.1268 12.4393 13.8749 12.7499 13.8749C13.0606 13.8749 13.3124 14.1268 13.3124 14.4374Z" stroke="#95C22B" stroke-width="1.125"/>
</svg>
