<svg width="18" height="18" viewBox="0 0 18 18" fill="none" xmlns="http://www.w3.org/2000/svg">
<path d="M16.5 9.37508C16.5 9.00653 16.496 8.2629 16.4881 7.8933C16.4392 5.59415 16.4147 4.44457 15.5663 3.593C14.7179 2.74142 13.5373 2.71176 11.1759 2.65243C9.72053 2.61586 8.27947 2.61586 6.82411 2.65242C4.46275 2.71175 3.28206 2.74141 2.43371 3.59299C1.58537 4.44456 1.56085 5.59414 1.51182 7.8933C1.49605 8.63258 1.49606 9.36743 1.51183 10.1067C1.56086 12.4059 1.58537 13.5554 2.43372 14.4071C3.28206 15.2586 4.46275 15.2882 6.82412 15.3476C7.42619 15.3627 8.02582 15.3716 8.625 15.3742" stroke="#BDBDBD" stroke-width="1.125" stroke-linecap="round" stroke-linejoin="round"/>
<path d="M5.25 6.375L7.45652 7.67955C8.7429 8.44012 9.2571 8.44012 10.5435 7.67955L12.75 6.375" stroke="#BDBDBD" stroke-width="1.125" stroke-linecap="round" stroke-linejoin="round"/>
<path d="M10.5 13.125H16.5M10.5 13.125C10.5 12.5998 11.9957 11.6186 12.375 11.25M10.5 13.125C10.5 13.6502 11.9957 14.6314 12.375 15" stroke="#BDBDBD" stroke-width="1.125" stroke-linecap="round" stroke-linejoin="round"/>
</svg>
