<svg width="18" height="18" viewBox="0 0 18 18" fill="none" xmlns="http://www.w3.org/2000/svg">
<g clip-path="url(#clip0_11_868)">
<path d="M1.76354 9.91012C1.49878 8.18715 1.3664 7.32572 1.69213 6.56203C2.01785 5.79834 2.74052 5.27582 4.18586 4.23079L5.26574 3.45C7.06372 2.15 7.96267 1.5 9 1.5C10.0373 1.5 10.9363 2.15 12.7343 3.45L13.8142 4.23079C15.2595 5.27582 15.9821 5.79834 16.3078 6.56203C16.6336 7.32572 16.5012 8.18715 16.2364 9.91012L16.0107 11.3793C15.6353 13.8217 15.4477 15.0429 14.5718 15.7714C13.6958 16.5 12.4153 16.5 9.8541 16.5H8.1459C5.58475 16.5 4.30418 16.5 3.42825 15.7714C2.55232 15.0429 2.36465 13.8217 1.98932 11.3793L1.76354 9.91012Z" stroke="#292929" stroke-width="1.125" stroke-linejoin="round"/>
<path d="M9 7.5V12M6.75 9.75H11.25" stroke="#292929" stroke-width="1.125" stroke-linecap="round"/>
</g>
<defs>
<clipPath id="clip0_11_868">
<rect width="18" height="18" fill="white"/>
</clipPath>
</defs>
</svg>
