<svg width="82" height="34" viewBox="0 0 82 34" fill="none" xmlns="http://www.w3.org/2000/svg">
<path d="M31.2375 19.536C29.2204 18.5493 28.1596 15.4555 29.0345 13.2701C29.9024 11.102 32.271 9.80003 34.7157 10.2474C35.3793 10.3688 35.379 10.3688 35.3787 11.0326C35.3783 11.7414 35.3786 12.4502 35.3786 13.1702C34.8946 13.1136 34.4686 13.0224 34.0425 13.0218C32.8296 13.02 31.9383 13.8841 31.8471 15.1065C31.7659 16.194 32.6747 17.1988 33.896 17.3719C34.9272 17.518 35.9288 16.7797 36.1844 15.6644C36.2519 15.37 36.2905 15.0622 36.2916 14.7604C36.3009 12.0873 36.298 9.41416 36.3014 6.74101C36.3017 6.55573 36.3231 6.37047 36.3372 6.14536C37.2976 6.14536 38.2252 6.1383 39.1522 6.1569C39.2394 6.15866 39.3369 6.31322 39.403 6.41424C39.4366 6.46562 39.412 6.55577 39.412 6.6284C39.412 9.44683 39.4084 12.2653 39.4132 15.0837C39.4152 16.2892 39.2267 17.4545 38.4221 18.3923C36.9133 20.1508 34.9682 20.6502 32.7535 20.1507C32.2387 20.0347 31.7608 19.7552 31.2375 19.536Z" fill="#95C22B"/>
<path d="M78.9795 13.2997C80.2764 16.231 77.9675 19.9939 74.9782 20.2444C72.853 20.4225 70.696 19.1959 69.8431 17.2244C68.9631 15.1902 69.4878 12.7938 71.1232 11.3775C73.5514 9.27479 77.1338 9.92885 78.7112 12.764C78.8028 12.9287 78.8817 13.1004 78.9795 13.2997ZM73.7081 13.2679C72.19 13.9136 72.2325 15.928 73.0033 16.6375C73.7504 17.3253 74.7487 17.4329 75.5064 16.878C76.2791 16.3122 76.5305 15.1296 76.0752 14.203C75.6418 13.321 74.7564 12.9523 73.7081 13.2679Z" fill="#95C22B"/>
<path d="M44.4839 14.6843C44.8634 14.3753 45.2404 14.0905 45.6279 13.8207C46.0413 13.5329 46.4647 13.2594 46.8908 12.9749C46.3915 12.5015 45.4807 12.4399 44.8922 12.8208C43.3849 13.7962 43.385 16.2932 44.8244 17.1196C45.6196 17.5762 46.4256 17.6482 47.1586 17.1199C47.6727 16.7493 48.0961 16.2305 48.4887 15.7228C48.7034 15.4451 48.8421 15.378 49.1462 15.5454C49.7407 15.8725 50.3521 16.1688 50.989 16.4945C50.4133 17.7802 49.6325 18.8368 48.4043 19.4891C46.9193 20.2778 45.3642 20.6129 43.7697 19.8509C42.0823 19.0444 40.8808 17.724 40.7102 15.8451C40.4677 13.1731 41.8429 11.0484 44.4558 10.353C46.8543 9.7147 49.0255 10.7052 50.2219 12.9025C50.3451 13.1286 50.3263 13.2574 50.1119 13.4029C48.6952 14.3642 47.2833 15.3327 45.8737 16.3044C45.686 16.4338 45.5504 16.4688 45.4144 16.238C45.1126 15.7258 44.7964 15.2222 44.4839 14.6843Z" fill="#95C22B"/>
<path d="M63.0244 15.5593C63.0244 13.1778 63.0333 10.8399 63.0157 8.50215C63.0127 8.10193 63.1269 7.96556 63.5298 7.98174C64.2257 8.00968 64.9239 8.00321 65.6204 7.98421C65.9659 7.97478 66.0844 8.10734 66.0719 8.44273C66.0535 8.93576 66.0798 9.43044 66.062 9.92352C66.0513 10.2203 66.1447 10.3416 66.4566 10.3281C66.9494 10.3067 67.444 10.3318 67.9374 10.3178C68.2088 10.3101 68.3338 10.3921 68.328 10.6857C68.3141 11.397 68.3128 12.1089 68.3287 12.8201C68.3357 13.1352 68.2026 13.2183 67.9117 13.208C67.4186 13.1906 66.9241 13.2142 66.4308 13.1992C66.1452 13.1905 66.007 13.268 66.014 13.5858C66.0311 14.3551 66.0077 15.1252 66.025 15.8945C66.0432 16.7061 66.3833 17.0555 67.1845 17.1275C67.3432 17.1418 67.5035 17.1419 67.6631 17.1423C68.3544 17.1439 68.3549 17.1431 68.3546 17.8578C68.3544 18.4531 68.3418 19.0487 68.3567 19.6437C68.3639 19.9303 68.2534 20.0277 67.9758 20.022C67.3225 20.0087 66.6681 20.0359 66.0157 20.0086C64.5069 19.9455 63.1295 18.5668 63.0422 17.04C63.0149 16.5622 63.0291 16.082 63.0244 15.5593Z" fill="#95C22B"/>
<path d="M52.6623 13.9879C52.6623 13.9879 52.6409 13.9726 52.6399 13.9235C52.4535 13.3797 52.2526 12.8901 52.0858 12.3892C51.7704 11.4421 51.7727 10.4951 52.1181 9.54949C52.2601 9.16074 52.365 8.75841 52.4867 8.36226C52.4867 8.36226 52.4807 8.34011 52.5125 8.31699C52.576 8.22849 52.6078 8.16311 52.6396 8.09773C52.6396 8.09773 52.6399 8.07466 52.6782 8.05945C52.7943 7.98223 52.8816 7.92907 52.9484 7.85685C53.4897 7.27106 54.0812 6.7414 54.825 6.436C56.2657 5.84444 57.6949 5.86796 59.0803 6.62351C59.5044 6.85481 59.9126 7.11538 60.328 7.36255C60.328 7.36255 60.3245 7.36363 60.3318 7.39265C60.4684 7.72619 60.5486 8.07567 60.9707 8.1125C60.9707 8.1125 60.9595 8.11967 60.9615 8.15224C61.1954 8.72311 61.4274 9.26142 61.6593 9.79972C61.6748 9.83804 61.6903 9.87636 61.6909 9.97951C61.6851 10.5459 61.6943 11.0475 61.7035 11.5491C61.7025 11.5922 61.7016 11.6353 61.6603 11.72C61.5494 11.9011 61.4751 12.0389 61.4088 12.1804C61.1054 12.8279 60.8074 13.4781 60.5008 14.1241C60.3661 14.408 60.2154 14.6844 60.0719 14.9642C60.0719 14.9642 60.0716 14.9564 60.0472 14.9662C59.8939 15.1753 59.7651 15.3745 59.6364 15.5737C59.6364 15.5737 59.6358 15.5667 59.6098 15.5737C59.3677 15.9253 59.1515 16.2698 58.9353 16.6144C58.9353 16.6144 58.9317 16.6083 58.9173 16.6214C58.8828 16.6578 58.8628 16.6811 58.8428 16.7043C58.8428 16.7043 58.846 16.6942 58.8217 16.7041C58.6704 16.9153 58.5433 17.1166 58.4163 17.3179C58.4163 17.3179 58.416 17.3106 58.3912 17.3205C58.2378 17.5299 58.109 17.7294 57.9803 17.9289C57.9803 17.9289 57.979 17.9206 57.9545 17.9294C57.8002 18.1393 57.6705 18.3403 57.5407 18.5414C57.5407 18.5414 57.5384 18.5742 57.5048 18.6003C57.3784 18.7711 57.2856 18.9158 57.1927 19.0605C57.1927 19.0605 57.1921 19.0526 57.1662 19.0599C57.0234 19.2768 56.9065 19.4863 56.7896 19.6959C56.7896 19.6959 56.7887 19.6897 56.7567 19.6949C56.1892 19.7481 55.6536 19.7952 55.1182 19.8442C54.8247 19.8711 54.7005 19.728 54.7104 19.446C54.7104 19.446 54.7139 19.4581 54.7384 19.452C54.8644 19.3675 54.991 19.3073 55.0632 19.2078C55.4287 18.7035 55.7861 18.1931 56.1313 17.6747C56.1984 17.574 56.1984 17.4286 56.2294 17.3039C56.2294 17.3039 56.2282 17.3036 56.257 17.2958C56.4165 17.1787 56.5752 17.0898 56.673 16.9563C57.0131 16.4924 57.3444 16.021 57.6546 15.5368C57.8664 15.206 58.0375 14.849 58.2267 14.5037C58.2267 14.5037 58.2284 14.5091 58.255 14.5019C58.545 14.1748 58.8327 13.8719 59.0672 13.5322C59.9433 12.2628 60.3554 10.9347 59.6889 9.40755C58.8227 7.42296 56.397 7.05366 54.8836 8.11718C53.5777 9.03479 53.232 10.6623 53.6211 12.0763C53.884 13.0314 54.492 13.769 55.5134 14.0595C56.021 14.2039 56.5248 14.3616 57.113 14.5382C56.9114 14.814 56.7492 15.0457 56.5764 15.2693C56.3944 15.5048 56.1976 15.7011 55.8491 15.6335C55.0382 15.4761 54.2205 15.3537 53.5623 14.7787C53.4271 14.6606 53.2318 14.6111 53.0642 14.53C53.0642 14.53 53.0713 14.5296 53.0711 14.5005C52.9346 14.3102 52.7985 14.149 52.6623 13.9879Z" fill="#95C22B"/>
<path d="M6.62418 26.9754C4.88259 24.7926 2.75634 22.8792 1.56633 20.3047C-0.961809 14.8354 -0.432692 9.6283 3.17682 4.74769C3.20927 4.74089 3.22469 4.75639 3.21125 4.78369C2.87467 5.30562 2.4898 5.77127 2.24128 6.30091C1.72661 7.39777 1.24056 8.51258 0.824061 9.64978C0.35186 10.9391 0.196356 12.3043 0.178192 13.6683C0.15189 15.6433 0.54435 17.53 1.32707 19.3694C1.93952 20.8087 2.79401 22.0608 3.74405 23.2653C4.52367 24.2537 5.37009 25.1892 6.16664 26.1647C6.36036 26.402 6.47444 26.7043 6.62328 26.9779C6.62142 26.9791 6.62418 26.9754 6.62418 26.9754Z" fill="#95C22B"/>
<path d="M53.076 14.5564C53.2318 14.6107 53.4271 14.6601 53.5623 14.7783C54.2205 15.3532 55.0382 15.4756 55.8491 15.633C56.1976 15.7006 56.3944 15.5044 56.5764 15.2688C56.7492 15.0453 56.9114 14.8135 57.113 14.5377C56.5248 14.3612 56.021 14.2035 55.5134 14.0591C54.492 13.7685 53.884 13.031 53.6211 12.0759C53.232 10.6619 53.5777 9.03434 54.8836 8.11673C56.397 7.05321 58.8227 7.42251 59.6889 9.4071C60.3554 10.9342 59.9433 12.2624 59.0672 13.5317C58.8327 13.8714 58.545 14.1744 58.2522 14.5013C58.5719 13.9758 58.9476 13.4584 59.2643 12.9072C59.7843 12.0023 60.0678 11.0391 59.7657 9.98867C59.3406 8.51067 57.916 7.49193 56.5389 7.67067C54.8096 7.89514 53.6562 9.1358 53.6232 10.8071C53.5846 12.7572 54.7375 14.0177 56.7548 14.2297C56.9647 14.2517 57.1753 14.2663 57.465 14.2912C57.1099 14.8153 56.7997 15.2818 56.4765 15.7391C56.4371 15.7949 56.3256 15.8314 56.2511 15.826C55.0684 15.7411 53.9534 15.4776 53.076 14.5564Z" fill="#95C22B"/>
<path d="M66.3632 25.3516C66.2548 25.2342 66.1301 25.1241 66.1161 25.0013C66.0818 24.7005 66.1296 24.3888 66.0809 24.0918C66.059 23.9587 65.8922 23.7641 65.7783 23.7548C65.6606 23.7452 65.4424 23.9084 65.417 24.0277C65.3488 24.349 65.3829 24.6911 65.3277 25.0167C65.3066 25.1412 65.172 25.3093 65.0566 25.3417C64.8284 25.4058 64.7217 25.2619 64.7311 25.0194C64.7422 24.73 64.7611 24.4343 64.7133 24.1521C64.6877 24.0013 64.5287 23.8731 64.4298 23.7347C64.2938 23.8608 64.079 23.966 64.0388 24.1175C63.9664 24.3906 63.992 24.6914 63.9892 24.9807C63.9872 25.183 63.988 25.358 63.7061 25.3603C63.4163 25.3627 63.3794 25.1962 63.3828 24.9657C63.3891 24.531 63.4022 24.095 63.3777 23.6614C63.3547 23.2565 63.5782 23.2518 63.8731 23.2886C64.0245 23.3074 64.1816 23.2758 64.3349 23.2857C64.6721 23.3076 65.0086 23.3415 65.3454 23.3704C65.3453 23.4143 65.3452 23.4581 65.3452 23.5019C65.4409 23.4383 65.533 23.3682 65.633 23.3123C66.1476 23.025 66.6584 23.2878 66.6932 23.871C66.7166 24.2612 66.7252 24.6555 66.6912 25.0436C66.6815 25.1545 66.5 25.2503 66.3632 25.3516Z" fill="#95C22B"/>
<path d="M57.6092 24.3658C57.6041 24.8005 57.6249 25.1945 57.5871 25.5828C57.5425 26.0419 57.277 26.2392 56.7435 26.28C56.0384 26.3339 55.736 26.1919 55.5431 25.6143C55.8349 25.6747 56.0668 25.7332 56.3022 25.7678C56.4784 25.7937 56.6937 25.8518 56.8277 25.7787C56.9484 25.7128 56.9822 25.4879 57.0546 25.3325C56.9536 25.2863 56.9218 25.2587 56.905 25.2659C56.4611 25.4565 56.0204 25.5248 55.6806 25.0952C55.3426 24.6678 55.3639 24.1715 55.5549 23.6934C55.7226 23.2736 56.2202 23.1249 56.7067 23.2828C56.8354 23.3247 56.9921 23.3114 57.1299 23.2878C57.4135 23.2393 57.629 23.2502 57.6114 23.6264C57.6005 23.858 57.6093 24.0906 57.6092 24.3658ZM57.0162 24.0552C56.8771 23.7452 56.6282 23.6593 56.3371 23.7859C56.0331 23.9182 56.0052 24.2041 56.0625 24.492C56.1206 24.7844 56.3345 24.8893 56.6096 24.876C56.936 24.8602 57.0688 24.6176 57.0162 24.0552Z" fill="#95C22B"/>
<path d="M31.8349 24.1324C32.0308 23.2469 32.345 23.0939 33.4394 23.3749C33.4394 23.0283 33.4173 22.6987 33.4518 22.3751C33.4633 22.2672 33.6198 22.1747 33.71 22.0752C33.8059 22.1697 33.9826 22.2623 33.985 22.3591C34.0075 23.2587 33.9951 24.1591 34.0042 25.0592C34.007 25.3312 33.857 25.3596 33.6411 25.3581C33.4202 25.3566 33.1947 25.3619 32.9791 25.4043C32.264 25.5452 31.8408 25.0956 31.8349 24.1324ZM33.4184 24.046C33.2584 23.7312 32.9646 23.6 32.7097 23.8064C32.5428 23.9416 32.4656 24.2784 32.4771 24.5187C32.4898 24.7879 32.733 24.933 33.0212 24.8802C33.3707 24.8161 33.4881 24.5741 33.4602 24.2415C33.4566 24.1984 33.4478 24.1557 33.4184 24.046Z" fill="#95C22B"/>
<path d="M4.4001 3.3973C9.22698 -1.42102 17.3985 -1.07232 21.8806 4.17763C21.8864 4.21227 21.8697 4.2305 21.842 4.22047C21.6072 4.03112 21.388 3.86399 21.1952 3.67054C19.995 2.46646 18.6105 1.54121 17.0204 0.940746C14.8392 0.117084 12.5964 -0.0632558 10.3144 0.411453C8.78019 0.730598 7.35752 1.32868 6.08532 2.26055C5.54102 2.65924 4.99145 3.05073 4.43329 3.43339C4.42229 3.4213 4.4001 3.3973 4.4001 3.3973Z" fill="#95C22B"/>
<path d="M53.7439 25.0002C53.7378 24.7026 53.7375 24.4413 53.7289 24.1802C53.7211 23.9459 53.6556 23.6877 53.3775 23.7484C53.1962 23.7879 52.969 23.9838 52.9153 24.1571C52.8327 24.4236 52.8715 24.731 52.8774 25.0207C52.8824 25.2639 52.7774 25.4048 52.5451 25.3307C52.4279 25.2934 52.2783 25.1301 52.271 25.0156C52.2415 24.5531 52.273 24.087 52.2599 23.6229C52.2489 23.2323 52.4761 23.2549 52.7473 23.2951C52.8978 23.3174 53.072 23.3477 53.2044 23.2956C53.862 23.0366 54.3145 23.302 54.3408 24.0007C54.3569 24.4312 54.3438 24.8628 54.3438 25.3191C54.0615 25.3103 53.7457 25.5096 53.7439 25.0002Z" fill="#95C22B"/>
<path d="M45.72 23.2114C46.4642 23.237 46.7901 23.4772 46.8947 24.0359C46.9472 24.3159 46.9032 24.4858 46.5581 24.4659C46.1998 24.4452 45.8394 24.4613 45.47 24.4613C45.5532 24.8705 45.7848 24.9865 46.1249 24.8365C46.4534 24.6916 46.4534 24.6915 46.7873 24.9146C46.5822 25.3449 46.1975 25.434 45.7832 25.4237C45.3602 25.4132 45.0281 25.2265 44.8769 24.8032C44.613 24.0644 44.9252 23.4554 45.72 23.2114ZM45.8843 23.7188C45.7304 23.7877 45.5765 23.8566 45.4226 23.9255C45.4397 23.9706 45.4568 24.0157 45.4739 24.0608C45.7256 24.0608 45.9773 24.0608 46.2291 24.0608C46.246 24.0255 46.2628 23.9902 46.2797 23.9549C46.1687 23.8784 46.0578 23.8019 45.8843 23.7188Z" fill="#95C22B"/>
<path d="M71.6649 23.7778C71.9841 23.2941 72.4059 23.1143 72.9094 23.2409C73.3344 23.3477 73.5661 23.6383 73.6493 24.0608C73.7027 24.3324 73.6225 24.4753 73.3192 24.4651C72.9507 24.4526 72.5814 24.4621 72.1393 24.4621C72.3366 24.9137 72.6133 24.9899 72.9018 24.8113C73.1815 24.638 73.3483 24.729 73.5382 24.9099C73.1843 25.4115 72.5967 25.5751 72.0926 25.322C71.5847 25.0669 71.4279 24.531 71.6649 23.7778ZM72.5797 24.101C72.7243 24.0865 72.8689 24.0721 73.0134 24.0576C73.0227 24.0032 73.032 23.9488 73.0412 23.8944C72.8737 23.8355 72.705 23.7294 72.5389 23.7331C72.413 23.736 72.2904 23.8789 72.1663 23.9595C72.1847 23.9941 72.2032 24.0286 72.2217 24.0632C72.3174 24.0754 72.4131 24.0877 72.5797 24.101Z" fill="#95C22B"/>
<path d="M36.9713 24.7936C37.0098 24.8877 37.0617 24.9952 37.028 25.0485C36.8086 25.3946 36.1669 25.5333 35.7206 25.3472C35.2649 25.1571 35.0267 24.6363 35.1349 24.0666C35.2341 23.544 35.6329 23.2252 36.1925 23.2212C36.7365 23.2174 37.0932 23.4922 37.202 23.9884C37.272 24.3078 37.209 24.495 36.8247 24.4706C36.4879 24.4493 36.1486 24.4662 35.7602 24.4662C35.9082 24.97 36.178 24.91 36.4749 24.8279C36.6245 24.7865 36.788 24.7957 36.9713 24.7936ZM35.8243 23.8745C35.8703 23.9491 35.9092 24.0814 35.9637 24.0882C36.1678 24.1139 36.3771 24.0985 36.6239 24.0985C36.3922 23.6642 36.295 23.6388 35.8243 23.8745Z" fill="#95C22B"/>
<path d="M42.2104 24.4464C42.0598 24.0711 41.919 23.7277 41.7789 23.3859C42.2856 23.1765 42.4203 23.23 42.56 23.6576C42.6515 23.9378 42.7423 24.2183 42.9223 24.4924C43.0083 24.2388 43.1176 23.9904 43.1751 23.7306C43.2674 23.313 43.4931 23.1767 43.9767 23.3424C43.8794 23.5925 43.7854 23.8379 43.6886 24.0821C43.5713 24.3779 43.4486 24.6716 43.3339 24.9685C43.2535 25.1767 43.1794 25.3463 42.8919 25.3591C42.5766 25.3731 42.499 25.1811 42.4118 24.9626C42.3474 24.8014 42.2841 24.6397 42.2104 24.4464Z" fill="#95C22B"/>
<path d="M74.817 24.8434C75.0108 24.8819 75.178 24.9555 75.3508 24.9729C75.4435 24.9822 75.5458 24.8948 75.6438 24.851C75.5827 24.7673 75.5384 24.6568 75.4568 24.6057C75.3112 24.5144 75.1115 24.4924 74.9924 24.38C74.8387 24.235 74.6438 24.0275 74.6476 23.8507C74.6515 23.6633 74.8283 23.422 74.9989 23.3074C75.3677 23.0597 75.8649 23.1937 76.2066 23.583C76.054 23.7545 75.9189 23.8676 75.6625 23.709C75.5706 23.6522 75.3906 23.738 75.2508 23.7587C75.3343 23.8578 75.4015 23.9817 75.5053 24.05C75.6481 24.144 75.8308 24.1769 75.9749 24.2694C76.3864 24.5336 76.3956 25.1185 75.9464 25.2755C75.611 25.3928 75.1936 25.3429 74.828 25.2795C74.6288 25.245 74.4811 25.0259 74.817 24.8434Z" fill="#95C22B"/>
<path d="M62.2038 23.5185C62.1104 23.7964 61.9606 23.8404 61.7084 23.7129C61.6051 23.6607 61.4357 23.7393 61.2964 23.7583C61.3778 23.8567 61.4425 23.9804 61.5444 24.0474C61.6877 24.1415 61.8684 24.1773 62.0156 24.2668C62.3831 24.4902 62.4157 24.933 62.0979 25.2223C61.7138 25.5721 60.9623 25.4699 60.6581 25.0262C60.9138 24.4407 61.4071 25.3003 61.7418 24.7693C61.5035 24.64 61.2673 24.5137 61.0329 24.3841C60.6687 24.1827 60.5371 23.8492 60.7477 23.5638C60.851 23.4237 61.0274 23.3053 61.1946 23.2513C61.5619 23.1328 61.9127 23.1887 62.2038 23.5185Z" fill="#95C22B"/>
<path d="M78.2918 8.56107C78.2658 7.75546 78.578 7.16119 79.2519 6.79771C79.8732 6.46261 80.5164 6.47385 81.1132 6.86859C81.8472 7.35406 82.1343 8.25954 81.8359 9.05062C81.5364 9.84458 80.7584 10.3218 79.9056 10.2347C79.0596 10.1484 78.442 9.52155 78.2918 8.56107ZM78.9813 7.2274C78.4698 7.76198 78.3109 8.38229 78.6138 9.06419C78.8972 9.70198 79.4162 10.0471 80.1237 10.05C80.8504 10.0531 81.4875 9.56846 81.6914 8.88927C81.8938 8.21496 81.6458 7.49208 81.0711 7.08106C80.4216 6.61662 79.747 6.65059 78.9813 7.2274Z" fill="#95C22B"/>
<path d="M23.3999 6.1958C24.9199 8.66564 25.5739 11.3622 25.4944 14.2468C25.4529 15.7499 25.1974 17.216 24.6627 18.6576C24.6468 18.6835 24.6437 18.6813 24.6483 18.6446C24.6936 18.3505 24.7097 18.0862 24.7793 17.8367C25.3118 15.9285 25.5487 13.9928 25.2633 12.0221C25.0148 10.306 24.6025 8.6348 23.7209 7.11166C23.5631 6.83913 23.4722 6.52792 23.3628 6.22488C23.3752 6.21519 23.3999 6.1958 23.3999 6.1958Z" fill="#95C22B"/>
<path d="M69.8186 24.2703C69.8186 23.5331 69.8186 22.8384 69.8186 22.1552C70.3572 22.0073 70.4172 22.0481 70.419 22.5488C70.4218 23.3323 70.4172 24.1158 70.421 24.8992C70.4222 25.1438 70.4391 25.3699 70.0775 25.3538C69.7011 25.337 69.8332 25.0696 69.82 24.8784C69.807 24.6907 69.8181 24.5014 69.8186 24.2703Z" fill="#95C22B"/>
<path d="M38.9521 23.6674C38.9501 24.1589 38.943 24.6069 38.9484 25.0548C38.9511 25.2831 38.8368 25.3971 38.6331 25.3345C38.522 25.3004 38.3688 25.1531 38.3665 25.0538C38.3463 24.1583 38.3451 23.2618 38.3699 22.3665C38.3728 22.2652 38.5586 22.1223 38.6829 22.0908C38.7448 22.0751 38.9303 22.2628 38.938 22.3674C38.9688 22.7843 38.9515 23.2047 38.9521 23.6674Z" fill="#95C22B"/>
<path d="M48.8269 23.3804C49.0338 23.3276 49.2202 23.2937 49.4066 23.2598C49.4139 23.3844 49.459 23.5242 49.4171 23.629C49.3806 23.7201 49.2493 23.8247 49.1534 23.8314C48.7351 23.8608 48.615 24.1113 48.6141 24.4761C48.6137 24.6645 48.6465 24.8639 48.5949 25.0376C48.5583 25.1607 48.4052 25.2491 48.3041 25.353C48.2031 25.2478 48.0231 25.1484 48.015 25.0366C47.9817 24.5751 47.99 24.1094 48.0073 23.6462C48.0119 23.5244 48.08 23.3288 48.161 23.3038C48.2848 23.2657 48.4449 23.3486 48.5904 23.3756C48.6614 23.3888 48.7343 23.3918 48.8269 23.3804Z" fill="#95C22B"/>
<path d="M60.318 7.33491C59.9126 7.11497 59.5044 6.8544 59.0803 6.6231C57.6949 5.86755 56.2657 5.84403 54.8249 6.43559C54.0811 6.74099 53.4896 7.27066 52.9483 7.85644C52.8816 7.92866 52.7942 7.98182 52.6882 8.05335C53.9884 5.90209 57.1336 5.22842 59.4149 6.6276C59.7322 6.82224 60.0112 7.07944 60.318 7.33491Z" fill="#95C22B"/>
<path d="M68.5448 23.8645C68.5475 24.281 68.5735 24.6591 68.5393 25.0318C68.5288 25.1473 68.3548 25.2479 68.2557 25.3554C68.1501 25.2516 67.9622 25.1543 67.9535 25.043C67.9188 24.5973 67.9409 24.1473 67.9397 23.6989C67.939 23.4688 67.9435 23.2554 68.2692 23.2634C68.5883 23.2712 68.5418 23.4943 68.5454 23.6939C68.5462 23.7373 68.5451 23.7807 68.5448 23.8645Z" fill="#95C22B"/>
<path d="M40.2162 24.7781C40.2175 24.3329 40.1994 23.9265 40.2344 23.5246C40.2426 23.4311 40.4249 23.3019 40.54 23.2866C40.617 23.2764 40.791 23.4357 40.7945 23.5242C40.8176 24.1128 40.8065 24.7028 40.8065 25.282C40.2483 25.4039 40.2316 25.3895 40.2162 24.7781Z" fill="#95C22B"/>
<path d="M24.056 20.093C23.5059 20.9902 22.9972 21.9164 22.3932 22.7756C21.8699 23.5202 21.2387 24.1888 20.621 24.8985C20.587 24.906 20.5617 24.8835 20.5671 24.8531C20.7916 24.5203 20.997 24.2068 21.2323 23.9176C22.1264 22.8189 23.087 21.7697 23.7044 20.4711C23.7756 20.3213 23.9236 20.2079 24.041 20.0815C24.046 20.0854 24.056 20.093 24.056 20.093Z" fill="#95C22B"/>
<path d="M50.441 25.1696C50.4313 24.6263 50.437 24.1196 50.4243 23.6133C50.4182 23.374 50.5028 23.2736 50.7492 23.2739C51.0033 23.2743 51.0213 23.4156 51.0189 23.6123C51.012 24.16 51.0165 24.7079 51.0165 25.3676C50.7856 25.302 50.6172 25.2542 50.441 25.1696Z" fill="#95C22B"/>
<path d="M52.464 8.37744C52.365 8.75824 52.2601 9.16057 52.1181 9.54932C51.7727 10.4949 51.7704 11.4419 52.0858 12.389C52.2526 12.8899 52.4535 13.3795 52.6392 13.9102C51.5248 12.1324 51.3954 10.2836 52.464 8.37744Z" fill="#95C22B"/>
<path d="M20.5996 24.9176C19.6658 26.0781 18.7194 27.2274 17.7425 28.3866C17.712 28.3966 17.6866 28.3717 17.6953 28.3424C17.7558 28.2108 17.7909 28.0946 17.8621 28.0083C18.4763 27.264 19.0916 26.5205 19.7181 25.7866C19.9852 25.4737 20.2797 25.184 20.5617 24.8838C20.5617 24.8838 20.587 24.9063 20.5996 24.9176Z" fill="#95C22B"/>
<path d="M10.1848 31.2603C9.23131 30.117 8.27779 28.9737 7.32226 27.795C7.32025 27.7596 7.33274 27.7463 7.36047 27.756C7.54539 27.9108 7.72111 28.0405 7.85665 28.2036C8.53902 29.0248 9.21499 29.8515 9.88298 30.6844C10.0152 30.8493 10.1026 31.0501 10.2042 31.2408C10.1977 31.2473 10.1848 31.2603 10.1848 31.2603Z" fill="#95C22B"/>
<path d="M17.0808 29.1604C16.3209 30.0911 15.5611 31.022 14.8009 31.9525C14.6177 32.1767 14.433 32.3999 14.2185 32.6282C14.1879 32.633 14.1834 32.6284 14.1912 32.5984C14.2884 32.4059 14.3551 32.2249 14.4709 32.0841C15.0026 31.4378 15.5412 30.7969 16.091 30.1659C16.3998 29.8115 16.7352 29.4803 17.0641 29.144C17.0697 29.1495 17.0808 29.1604 17.0808 29.1604Z" fill="#95C22B"/>
<path d="M54.6883 19.4634C54.7005 19.7275 54.8247 19.8706 55.1182 19.8437C55.6536 19.7947 56.1892 19.7476 56.7598 19.6949C56.6883 19.9459 56.5096 20.0364 56.2228 20.0247C55.6095 19.9999 54.9945 20.0171 54.2799 20.0171C54.4437 19.7898 54.555 19.6356 54.6883 19.4634Z" fill="#95C22B"/>
<path d="M58.2002 14.5156C58.0374 14.849 57.8664 15.2059 57.6546 15.5368C57.3444 16.021 57.0131 16.4924 56.673 16.9562C56.5752 17.0897 56.4165 17.1786 56.2569 17.2963C56.8766 16.3789 57.5251 15.4532 58.2002 14.5156Z" fill="#95C22B"/>
<path d="M60.0997 14.9536C60.2154 14.6841 60.3661 14.4078 60.5008 14.1238C60.8074 13.4778 61.1054 12.8276 61.4088 12.1801C61.4751 12.0386 61.5494 11.9008 61.6418 11.7466C61.4602 12.95 60.858 13.9773 60.0997 14.9536Z" fill="#95C22B"/>
<path d="M21.8947 4.20312C22.3935 4.84274 22.884 5.49146 23.3872 6.16805C23.3999 6.19592 23.3752 6.21531 23.3399 6.2074C22.8263 5.54315 22.348 4.88681 21.8697 4.23047C21.8697 4.23047 21.8864 4.21224 21.8947 4.20312Z" fill="#95C22B"/>
<path d="M56.2012 17.3135C56.1984 17.4287 56.1983 17.574 56.1313 17.6748C55.7861 18.1931 55.4287 18.7035 55.0632 19.2078C54.991 19.3074 54.8644 19.3675 54.7323 19.4537C55.1921 18.7487 55.6826 18.0359 56.2012 17.3135Z" fill="#95C22B"/>
<path d="M50.897 22.1364C50.9289 22.3294 50.9602 22.5114 50.9237 22.6786C50.9153 22.7167 50.6397 22.7569 50.5475 22.6994C50.4557 22.642 50.3795 22.4499 50.4033 22.34C50.4538 22.1062 50.6352 22.0236 50.897 22.1364Z" fill="#95C22B"/>
<path d="M67.8997 22.4435C68.0214 22.3021 68.1299 22.1535 68.2749 22.094C68.3316 22.0707 68.5433 22.2398 68.5535 22.3352C68.5667 22.4589 68.4839 22.6563 68.3809 22.7162C68.1428 22.8546 67.9812 22.7135 67.8997 22.4435Z" fill="#95C22B"/>
<path d="M40.2169 22.5705C40.2919 22.3882 40.3627 22.2192 40.4811 22.0962C40.5064 22.0698 40.7596 22.1827 40.8074 22.2805C40.8547 22.3774 40.7895 22.6437 40.7488 22.6491C40.5809 22.6715 40.4036 22.6229 40.2169 22.5705Z" fill="#95C22B"/>
<path d="M14.19 32.6353C13.7862 33.0781 13.3801 33.5186 12.9392 33.9616C12.9043 33.9641 12.8888 33.947 12.8989 33.9189C13.3338 33.47 13.7586 33.0492 14.1834 32.6284C14.1834 32.6284 14.1879 32.6329 14.19 32.6353Z" fill="#95C22B"/>
<path d="M11.2898 32.5907C10.9299 32.1651 10.57 31.7395 10.1975 31.2872C10.1848 31.2605 10.1977 31.2475 10.2329 31.2492C10.6229 31.6854 10.9777 32.1201 11.3218 32.5637C11.3111 32.5727 11.2898 32.5907 11.2898 32.5907Z" fill="#95C22B"/>
<path d="M61.6626 9.76721C61.4273 9.26092 61.1954 8.72262 60.9678 8.1499C61.2035 8.6554 61.4347 9.1953 61.6626 9.76721Z" fill="#95C22B"/>
<path d="M24.6483 18.6846C24.467 19.1424 24.2841 19.5991 24.0786 20.0744C24.056 20.0929 24.0459 20.0853 24.0456 20.0471C24.2448 19.5663 24.4442 19.1238 24.6437 18.6812C24.6437 18.6812 24.6468 18.6834 24.6483 18.6846Z" fill="#95C22B"/>
<path d="M12.246 33.6427C11.9358 33.3098 11.6257 32.9769 11.3027 32.6174C11.2898 32.5908 11.3111 32.5728 11.3495 32.5738C11.6881 32.9172 11.9883 33.2596 12.2778 33.6122C12.2671 33.6222 12.246 33.6427 12.246 33.6427Z" fill="#95C22B"/>
<path d="M61.7135 11.5138C61.6943 11.0473 61.6851 10.5457 61.6895 10.0107C61.7098 10.4778 61.7166 10.9782 61.7135 11.5138Z" fill="#95C22B"/>
<path d="M58.9621 16.6018C59.1515 16.2697 59.3677 15.9251 59.6133 15.5732C59.4248 15.9071 59.2069 16.2483 58.9621 16.6018Z" fill="#95C22B"/>
<path d="M3.20152 4.73324C3.40694 4.47175 3.62008 4.21801 3.86668 3.95707C3.90015 3.94987 3.9208 3.9694 3.91086 3.99756C3.6755 4.26931 3.45008 4.5129 3.22466 4.75649C3.22466 4.75649 3.20924 4.74099 3.20152 4.73324Z" fill="#95C22B"/>
<path d="M60.9577 8.0866C60.5486 8.07575 60.4684 7.72627 60.3327 7.39111C60.5324 7.59386 60.7385 7.82724 60.9577 8.0866Z" fill="#95C22B"/>
<path d="M17.7245 28.409C17.536 28.6603 17.3348 28.899 17.1072 29.1492C17.0808 29.1606 17.0697 29.1497 17.0728 29.1155C17.2794 28.8448 17.483 28.6082 17.6866 28.3716C17.6866 28.3716 17.712 28.3964 17.7245 28.409Z" fill="#95C22B"/>
<path d="M7.314 27.7661C7.11479 27.5549 6.92184 27.3372 6.71816 27.0912C6.70743 27.0629 6.70872 27.0611 6.73871 27.0662C6.95672 27.2962 7.14473 27.5213 7.33275 27.7463C7.33275 27.7463 7.32026 27.7595 7.314 27.7661Z" fill="#95C22B"/>
<path d="M3.88988 3.94001C4.03696 3.76264 4.19431 3.59509 4.37588 3.41231C4.4001 3.39708 4.42228 3.42108 4.42801 3.46372C4.26275 3.66069 4.09178 3.81502 3.92081 3.96936C3.92081 3.96936 3.90016 3.94982 3.88988 3.94001Z" fill="#95C22B"/>
<path d="M58.4437 17.3075C58.5433 17.1164 58.6703 16.9151 58.8268 16.7056C58.7278 16.8973 58.5995 17.0973 58.4437 17.3075Z" fill="#95C22B"/>
<path d="M56.8101 19.6754C56.9065 19.4863 57.0234 19.2767 57.1702 19.0596C57.0769 19.253 56.9538 19.454 56.8101 19.6754Z" fill="#95C22B"/>
<path d="M57.5621 18.535C57.6705 18.3402 57.8002 18.1392 57.9587 17.9287C57.8527 18.1224 57.7181 18.3255 57.5621 18.535Z" fill="#95C22B"/>
<path d="M58.0075 17.9176C58.1091 17.7293 58.2378 17.5298 58.3949 17.3203C58.2937 17.509 58.1642 17.7077 58.0075 17.9176Z" fill="#95C22B"/>
<path d="M59.6639 15.5636C59.7651 15.3742 59.8939 15.175 60.0511 14.9658C59.9501 15.1551 59.8208 15.3544 59.6639 15.5636Z" fill="#95C22B"/>
<path d="M52.6686 14.0166C52.7985 14.1489 52.9346 14.31 53.0712 14.5039C52.9394 14.3729 52.8072 14.2092 52.6686 14.0166Z" fill="#95C22B"/>
<path d="M12.6142 33.9772C12.5026 33.8806 12.3911 33.784 12.2627 33.665C12.246 33.6427 12.2671 33.6223 12.3079 33.6177C12.4464 33.7243 12.5441 33.8355 12.6349 33.9543C12.628 33.962 12.6142 33.9772 12.6142 33.9772Z" fill="#95C22B"/>
<path d="M57.2193 19.0485C57.2856 18.9155 57.3784 18.7708 57.4987 18.6152C57.4327 18.7485 57.3393 18.8927 57.2193 19.0485Z" fill="#95C22B"/>
<path d="M52.6166 8.11328C52.6078 8.16258 52.576 8.22796 52.5219 8.30997C52.531 8.26085 52.5623 8.1951 52.6166 8.11328Z" fill="#95C22B"/>
<path d="M12.9121 33.9728C12.8312 33.9934 12.7424 34.0056 12.6339 33.9975C12.6142 33.9772 12.628 33.962 12.6657 33.9557C12.7653 33.9488 12.827 33.948 12.8888 33.9473C12.8888 33.9473 12.9043 33.9643 12.9121 33.9728Z" fill="#95C22B"/>
<path d="M6.70764 27.0637C6.68228 27.0499 6.65671 27.0354 6.62765 26.9981C6.62417 26.9754 6.6214 26.9791 6.63861 26.9905C6.67556 27.0198 6.6932 27.0396 6.70872 27.0613C6.70872 27.0613 6.70743 27.063 6.70764 27.0637Z" fill="#95C22B"/>
<path d="M58.8665 16.6961C58.8628 16.6806 58.8828 16.6573 58.9203 16.6191C58.922 16.6323 58.9062 16.6603 58.8665 16.6961Z" fill="#95C22B"/>
<path d="M6.73873 27.0666C6.69321 27.0399 6.67558 27.0201 6.64049 26.9895C6.47444 26.7045 6.36036 26.4022 6.16664 26.165C5.37009 25.1895 4.52367 24.254 3.74405 23.2655C2.79401 22.0611 1.93952 20.8089 1.32707 19.3696C0.544347 17.5302 0.151887 15.6436 0.178188 13.6686C0.196353 12.3046 0.351856 10.9393 0.824058 9.65001C1.24056 8.5128 1.7266 7.39799 2.24128 6.30114C2.4898 5.7715 2.87467 5.30584 3.21124 4.78392C3.45011 4.51303 3.67553 4.26944 3.91089 3.99769C4.0918 3.81519 4.26277 3.66086 4.43901 3.47598C4.99146 3.05068 5.54103 2.65919 6.08532 2.26051C7.35752 1.32864 8.7802 0.730551 10.3144 0.411406C12.5964 -0.0633027 14.8392 0.117037 17.0204 0.940699C18.6105 1.54117 19.995 2.46641 21.1952 3.67049C21.388 3.86394 21.6072 4.03108 21.842 4.22042C22.348 4.88679 22.8263 5.54313 23.3275 6.21707C23.4722 6.52802 23.5632 6.83923 23.7209 7.11176C24.6025 8.6349 25.0148 10.3061 25.2633 12.0222C25.5487 13.9929 25.3119 15.9286 24.7793 17.8368C24.7097 18.0863 24.6937 18.3506 24.6483 18.6447C24.4443 19.124 24.2448 19.5666 24.0406 20.0435C23.9235 20.2081 23.7756 20.3214 23.7043 20.4712C23.087 21.7699 22.1264 22.8191 21.2323 23.9178C20.997 24.207 20.7916 24.5205 20.567 24.8532C20.2797 25.1839 19.9853 25.4736 19.7181 25.7865C19.0916 26.5204 18.4763 27.2639 17.8622 28.0082C17.7909 28.0945 17.7558 28.2107 17.6953 28.3423C17.4831 28.6082 17.2795 28.8447 17.0672 29.11C16.7352 29.4804 16.3998 29.8117 16.091 30.1661C15.5412 30.797 15.0026 31.438 14.4709 32.0843C14.3551 32.225 14.2884 32.4061 14.1912 32.5986C13.7586 33.0494 13.3338 33.4701 12.8989 33.919C12.8271 33.9479 12.7653 33.9487 12.6726 33.948C12.5441 33.8354 12.4464 33.7242 12.3186 33.6075C11.9884 33.2596 11.6881 32.9171 11.3602 32.5647C10.9777 32.1201 10.623 31.6855 10.2394 31.2428C10.1026 31.0505 10.0152 30.8496 9.88301 30.6848C9.21502 29.8518 8.53904 29.0252 7.85667 28.204C7.72114 28.0408 7.54542 27.9111 7.3605 27.7563C7.14475 27.5216 6.95673 27.2966 6.73873 27.0666ZM20.4745 12.4564C20.7163 11.3392 20.7899 10.2194 20.5863 9.08445C20.3013 7.4962 19.2421 6.52002 17.6329 6.57596C16.7329 6.60724 15.8338 6.84285 14.9485 7.0477C14.4721 7.15793 14.0257 7.39756 13.5658 7.57881C13.5698 7.63475 13.5738 7.69069 13.5779 7.74663C13.9798 7.83235 14.3814 7.91955 14.7838 8.00335C15.1088 8.07106 15.4469 8.10155 15.7548 8.21495C15.8954 8.26676 16.0495 8.47263 16.0613 8.61953C16.0697 8.72483 15.861 8.9352 15.7335 8.94843C15.1943 9.00441 14.6161 9.12992 14.1137 8.99724C13.1806 8.75086 12.2758 8.37581 11.3864 7.9916C10.3487 7.54338 9.35669 6.98826 8.31426 6.55279C7.2506 6.10845 6.34152 6.36344 5.73126 7.33019C5.36927 7.90362 5.08109 8.58362 4.97737 9.2496C4.55591 11.9559 5.08469 14.4711 6.69303 16.73C6.82195 16.9111 6.88374 17.1693 6.89904 17.3969C6.972 18.4821 6.97633 19.5734 7.08565 20.6543C7.19245 21.7104 7.4247 22.7503 7.97974 23.6804C8.27281 24.1715 8.65663 24.5867 9.28515 24.5471C9.90102 24.5083 10.1268 23.9988 10.355 23.5222C10.3862 23.457 10.4105 23.3876 10.4302 23.318C10.7152 22.313 10.9662 21.2967 11.2949 20.3062C11.5022 19.6814 11.7601 19.0529 12.1152 18.5036C12.4498 17.9858 13.1989 18.0204 13.5797 18.5134C13.7973 18.795 13.9861 19.1251 14.0891 19.4634C14.3043 20.1702 14.4294 20.9042 14.6373 21.6136C14.8607 22.3754 15.0486 23.1679 15.4122 23.8633C15.864 24.7274 16.8695 24.7556 17.4458 23.9665C17.7298 23.5776 17.9459 23.1121 18.0846 22.6489C18.6077 20.9016 18.6081 19.0973 18.5961 17.2939C18.5948 17.0857 18.6045 16.8324 18.7157 16.6757C19.6066 15.4203 20.119 14.0118 20.4745 12.4564Z" fill="#95C22B"/>
<path d="M20.4676 12.4924C20.119 14.0116 19.6066 15.4201 18.7157 16.6755C18.6044 16.8322 18.5948 17.0856 18.5961 17.2938C18.6081 19.0972 18.6077 20.9015 18.0846 22.6487C17.9459 23.1119 17.7297 23.5774 17.4458 23.9663C16.8695 24.7555 15.8639 24.7273 15.4122 23.8631C15.0486 23.1678 14.8607 22.3753 14.6373 21.6134C14.4293 20.904 14.3043 20.1701 14.0891 19.4632C13.9861 19.1249 13.7972 18.7949 13.5797 18.5133C13.1989 18.0202 12.4498 17.9856 12.1152 18.5034C11.7601 19.0528 11.5022 19.6813 11.2949 20.3061C10.9662 21.2966 10.7152 22.3128 10.4302 23.3179C10.4105 23.3875 10.3862 23.4569 10.355 23.522C10.1268 23.9987 9.90101 24.5082 9.28513 24.547C8.65662 24.5866 8.2728 24.1714 7.97973 23.6802C7.42469 22.7501 7.19244 21.7102 7.08564 20.6542C6.97631 19.5732 6.97199 18.482 6.89903 17.3968C6.88373 17.1692 6.82194 16.911 6.69302 16.7299C5.08468 14.471 4.55589 11.9557 4.97736 9.24946C5.08107 8.58349 5.36926 7.90349 5.73124 7.33005C6.34151 6.36331 7.25058 6.10831 8.31425 6.55266C9.35668 6.98813 10.3487 7.54325 11.3863 7.99146C12.2758 8.37567 13.1806 8.75072 14.1137 8.9971C14.6161 9.12978 15.1943 9.00427 15.7335 8.9483C15.8609 8.93506 16.0697 8.72469 16.0613 8.61939C16.0495 8.4725 15.8954 8.26662 15.7548 8.21482C15.4469 8.10141 15.1088 8.07092 14.7837 8.00321C14.3814 7.91941 13.9798 7.83222 13.5779 7.74649C13.5738 7.69055 13.5698 7.63461 13.5658 7.57867C14.0257 7.39743 14.4721 7.15779 14.9485 7.04757C15.8338 6.84272 16.7329 6.6071 17.6329 6.57582C19.2421 6.51989 20.3013 7.49606 20.5863 9.08431C20.7899 10.2193 20.7163 11.3391 20.4676 12.4924Z" fill="white"/>
<path d="M79.8622 7.36206C80.0764 7.36669 80.2533 7.35212 80.424 7.37803C80.8802 7.44724 81.2141 7.95397 80.9799 8.30754C80.7655 8.63125 80.7142 8.88397 80.9877 9.18837C80.4255 9.50923 80.4177 8.54544 79.9043 8.81439C79.9114 8.80673 79.8883 8.82502 79.8739 8.84861C79.7885 8.98808 79.7052 9.12878 79.6212 9.26906C79.5452 9.11001 79.4208 8.9561 79.4033 8.79084C79.3682 8.46058 79.4023 8.12365 79.3881 7.79031C79.3746 7.47458 79.5018 7.32674 79.8622 7.36206ZM80.4173 7.76609C79.8296 7.6572 79.7416 7.76429 79.9416 8.44888C80.1358 8.38865 80.3597 8.36756 80.5089 8.25084C80.5756 8.19866 80.492 7.9545 80.4173 7.76609Z" fill="#95C22B"/>
</svg>
