<svg width="97" height="40" viewBox="0 0 97 40" fill="none" xmlns="http://www.w3.org/2000/svg">
<path d="M36.75 22.9838C34.377 21.823 33.129 18.1832 34.1582 15.6121C35.1793 13.0615 37.9659 11.5297 40.842 12.056C41.6227 12.1989 41.6224 12.1989 41.622 12.9798C41.6216 13.8137 41.6219 14.6476 41.6219 15.4946C41.0525 15.428 40.5513 15.3208 40.05 15.32C38.6231 15.3179 37.5744 16.3345 37.4671 17.7726C37.3716 19.052 38.4408 20.2342 39.8777 20.4378C41.0908 20.6097 42.2691 19.741 42.5699 18.429C42.6492 18.0826 42.6947 17.7206 42.696 17.3655C42.7069 14.2206 42.7036 11.0757 42.7076 7.93086C42.7078 7.71288 42.7331 7.49493 42.7497 7.23009C43.8795 7.23009 44.9708 7.22179 46.0614 7.24368C46.164 7.24574 46.2787 7.42758 46.3564 7.54642C46.396 7.60687 46.367 7.71293 46.367 7.79837C46.367 11.1142 46.3628 14.43 46.3685 17.7458C46.3709 19.164 46.1491 20.5349 45.2024 21.6383C43.4275 23.7071 41.1391 24.2946 38.5336 23.707C37.9279 23.5704 37.3656 23.2417 36.75 22.9838Z" fill="#292929"/>
<path d="M92.9171 15.6468C94.4428 19.0953 91.7264 23.5223 88.2096 23.817C85.7094 24.0265 83.1717 22.5835 82.1683 20.264C81.1331 17.8708 81.7503 15.0515 83.6744 13.3853C86.531 10.9115 90.7457 11.681 92.6014 15.0165C92.7091 15.2103 92.802 15.4123 92.9171 15.6468ZM86.7155 15.6093C84.9294 16.369 84.9794 18.7389 85.8862 19.5736C86.7652 20.3828 87.9396 20.5094 88.8311 19.8565C89.7401 19.1909 90.0359 17.7996 89.5002 16.7094C88.9904 15.6718 87.9487 15.2381 86.7155 15.6093Z" fill="#292929"/>
<path d="M52.334 17.2758C52.7805 16.9123 53.224 16.5772 53.6799 16.2598C54.1662 15.9212 54.6643 15.5994 55.1657 15.2647C54.5783 14.7078 53.5068 14.6353 52.8143 15.0834C51.0411 16.2309 51.0412 19.1686 52.7346 20.1409C53.6701 20.678 54.6184 20.7627 55.4807 20.1412C56.0855 19.7052 56.5836 19.0948 57.0455 18.4975C57.2981 18.1709 57.4613 18.0919 57.8191 18.2888C58.5184 18.6736 59.2377 19.0222 59.9871 19.4054C59.3098 20.918 58.3912 22.1611 56.9463 22.9285C55.1992 23.8564 53.3696 24.2506 51.4938 23.3541C49.5086 22.4053 48.095 20.8519 47.8944 18.6414C47.609 15.4979 49.227 12.9983 52.301 12.1802C55.1227 11.4292 57.6771 12.5945 59.0846 15.1795C59.2295 15.4456 59.2075 15.5971 58.9552 15.7682C57.2885 16.8992 55.6274 18.0385 53.969 19.1818C53.7482 19.334 53.5887 19.3752 53.4287 19.1037C53.0737 18.5011 52.7016 17.9086 52.334 17.2758Z" fill="#292929"/>
<path d="M74.1463 18.3047C74.1463 15.503 74.1568 12.7525 74.1361 10.0022C74.1326 9.53134 74.2669 9.37091 74.7409 9.38994C75.5596 9.42281 76.381 9.4152 77.2004 9.39284C77.6069 9.38175 77.7463 9.5377 77.7316 9.93228C77.71 10.5123 77.7409 11.0943 77.72 11.6744C77.7074 12.0235 77.8173 12.1662 78.1842 12.1503C78.764 12.1252 79.3459 12.1547 79.9263 12.1383C80.2456 12.1292 80.3927 12.2257 80.3859 12.5711C80.3695 13.4078 80.368 14.2454 80.3866 15.0821C80.3949 15.4528 80.2383 15.5506 79.896 15.5385C79.3159 15.518 78.7342 15.5458 78.1539 15.5281C77.8178 15.5179 77.6553 15.6091 77.6636 15.983C77.6836 16.888 77.6561 17.794 77.6764 18.699C77.6979 19.6539 78.098 20.0649 79.0405 20.1496C79.2273 20.1664 79.4159 20.1666 79.6037 20.1671C80.4169 20.169 80.4175 20.168 80.4172 21.0088C80.4169 21.7092 80.4021 22.4099 80.4196 23.1099C80.4281 23.447 80.2981 23.5616 79.9714 23.555C79.203 23.5393 78.433 23.5713 77.6655 23.5392C75.8904 23.465 74.27 21.843 74.1673 20.0467C74.1352 19.4846 74.1519 18.9197 74.1463 18.3047Z" fill="#292929"/>
<path d="M61.9556 16.4561C61.9556 16.4561 61.9304 16.4382 61.9293 16.3804C61.71 15.7406 61.4737 15.1646 61.2774 14.5753C60.9063 13.4611 60.9091 12.347 61.3155 11.2345C61.4825 10.7772 61.6058 10.3038 61.7491 9.83778C61.7491 9.83778 61.742 9.81172 61.7794 9.78451C61.8541 9.6804 61.8915 9.60348 61.929 9.52657C61.929 9.52657 61.9293 9.49943 61.9743 9.48152C62.1109 9.39069 62.2137 9.32814 62.2922 9.24318C62.929 8.55402 63.6249 7.93088 64.4999 7.57159C66.195 6.87564 67.8764 6.90331 69.5062 7.79219C70.0052 8.06431 70.4854 8.37086 70.9742 8.66165C70.9742 8.66165 70.97 8.66291 70.9785 8.69706C71.1393 9.08946 71.2336 9.50062 71.7302 9.54395C71.7302 9.54395 71.7171 9.55238 71.7194 9.59069C71.9946 10.2623 72.2675 10.8956 72.5403 11.5289C72.5586 11.574 72.5768 11.6191 72.5775 11.7404C72.5707 12.4068 72.5815 12.9969 72.5923 13.587C72.5912 13.6377 72.5901 13.6884 72.5415 13.7881C72.411 14.0011 72.3237 14.1632 72.2457 14.3297C71.8887 15.0915 71.5381 15.8564 71.1774 16.6164C71.0189 16.9505 70.8416 17.2756 70.6729 17.6048C70.6729 17.6048 70.6725 17.5956 70.6437 17.6071C70.4634 17.8531 70.3119 18.0875 70.1604 18.3219C70.1604 18.3219 70.1597 18.3136 70.1292 18.3218C69.8443 18.7354 69.59 19.1408 69.3357 19.5462C69.3357 19.5462 69.3314 19.5389 69.3144 19.5544C69.2739 19.5972 69.2503 19.6246 69.2268 19.652C69.2268 19.652 69.2306 19.64 69.202 19.6517C69.0239 19.9002 68.8745 20.137 68.725 20.3738C68.725 20.3738 68.7247 20.3653 68.6955 20.3769C68.515 20.6232 68.3636 20.8579 68.2121 21.0926C68.2121 21.0926 68.2106 21.0829 68.1818 21.0933C68.0003 21.3402 67.8476 21.5767 67.695 21.8132C67.695 21.8132 67.6922 21.8518 67.6527 21.8825C67.504 22.0835 67.3948 22.2537 67.2855 22.4239C67.2855 22.4239 67.2848 22.4147 67.2544 22.4232C67.0864 22.6784 66.9488 22.9249 66.8112 23.1715C66.8112 23.1715 66.8102 23.1641 66.7726 23.1703C66.1049 23.2329 65.4748 23.2883 64.8449 23.346C64.4996 23.3776 64.3535 23.2092 64.3651 22.8774C64.3651 22.8774 64.3692 22.8918 64.3981 22.8845C64.5464 22.7851 64.6953 22.7144 64.7802 22.5972C65.2103 22.004 65.6308 21.4034 66.0368 20.7936C66.1157 20.6751 66.1158 20.5041 66.1522 20.3573C66.1522 20.3573 66.1508 20.357 66.1846 20.3478C66.3724 20.21 66.5591 20.1054 66.6742 19.9484C67.0742 19.4026 67.464 18.8481 67.8289 18.2784C68.0782 17.8892 68.2793 17.4692 68.502 17.063C68.502 17.063 68.5039 17.0694 68.5353 17.0608C68.8764 16.6761 69.2149 16.3197 69.4908 15.92C70.5215 14.4267 71.0063 12.8641 70.2222 11.0675C69.2032 8.73272 66.3494 8.29825 64.5689 9.54945C63.0326 10.629 62.6258 12.5437 63.0837 14.2073C63.3929 15.3309 64.1083 16.1986 65.3098 16.5404C65.907 16.7103 66.4998 16.8959 67.1918 17.1035C66.9545 17.428 66.7637 17.7007 66.5605 17.9637C66.3464 18.2408 66.1149 18.4717 65.7048 18.3921C64.7509 18.207 63.7888 18.063 63.0145 17.3865C62.8553 17.2476 62.6257 17.1894 62.4285 17.094C62.4285 17.094 62.4368 17.0935 62.4365 17.0592C62.276 16.8353 62.1158 16.6457 61.9556 16.4561Z" fill="#95C22B"/>
<path d="M7.79312 31.7361C5.74419 29.1681 3.24272 26.917 1.84271 23.8882C-1.13157 17.4537 -0.509083 11.3277 3.7374 5.58584C3.77557 5.57784 3.79372 5.59608 3.7779 5.6282C3.38193 6.24222 2.92914 6.79006 2.63677 7.41316C2.03127 8.70358 1.45945 10.0151 0.96945 11.353C0.413919 12.8698 0.230973 14.476 0.209604 16.0807C0.178661 18.4042 0.640378 20.6238 1.56123 22.7879C2.28176 24.4811 3.28704 25.9542 4.40473 27.3713C5.32193 28.5341 6.31772 29.6347 7.25484 30.7824C7.48274 31.0615 7.61695 31.4171 7.79206 31.739C7.78988 31.7405 7.79312 31.7361 7.79312 31.7361Z" fill="#95C22B"/>
<path d="M62.4424 17.1255C62.6256 17.1894 62.8553 17.2476 63.0144 17.3865C63.7888 18.063 64.7508 18.207 65.7048 18.3921C66.1149 18.4717 66.3464 18.2408 66.5605 17.9637C66.7637 17.7007 66.9545 17.428 67.1918 17.1035C66.4998 16.8959 65.907 16.7103 65.3098 16.5404C64.1083 16.1986 63.3929 15.3309 63.0837 14.2073C62.6258 12.5437 63.0326 10.629 64.5689 9.54945C66.3494 8.29825 69.2032 8.73272 70.2222 11.0675C71.0063 12.8641 70.5215 14.4267 69.4907 15.92C69.2149 16.3197 68.8764 16.6761 68.532 17.0607C68.9081 16.4425 69.3501 15.8338 69.7227 15.1853C70.3345 14.1207 70.668 12.9875 70.3126 11.7517C69.8125 10.0129 68.1364 8.81438 66.5163 9.02467C64.4818 9.28875 63.1249 10.7484 63.0861 12.7146C63.0407 15.0088 64.397 16.4918 66.7703 16.7411C67.0172 16.7671 67.2651 16.7843 67.6059 16.8135C67.1881 17.4301 66.8232 17.9789 66.4429 18.5169C66.3965 18.5826 66.2654 18.6255 66.1778 18.6192C64.7863 18.5193 63.4746 18.2092 62.4424 17.1255Z" fill="#95C22B"/>
<path d="M78.0744 29.8256C77.9468 29.6875 77.8001 29.5579 77.7836 29.4135C77.7433 29.0596 77.7995 28.6929 77.7422 28.3436C77.7165 28.1869 77.5202 27.958 77.3863 27.947C77.2477 27.9357 76.991 28.1278 76.9612 28.2681C76.8809 28.6461 76.921 29.0485 76.8561 29.4316C76.8313 29.5781 76.6729 29.7759 76.5372 29.814C76.2687 29.8894 76.1432 29.7201 76.1542 29.4348C76.1672 29.0944 76.1896 28.7464 76.1333 28.4144C76.1032 28.237 75.916 28.0862 75.7998 27.9234C75.6397 28.0717 75.387 28.1955 75.3398 28.3737C75.2546 28.6951 75.2847 29.0489 75.2813 29.3893C75.279 29.6272 75.28 29.8331 74.9484 29.8359C74.6074 29.8386 74.564 29.6428 74.568 29.3717C74.5754 28.8602 74.5908 28.3472 74.5619 27.8372C74.535 27.3608 74.7978 27.3553 75.1448 27.3985C75.3229 27.4207 75.5077 27.3835 75.6881 27.3952C76.0849 27.421 76.4807 27.4608 76.8769 27.4949C76.8768 27.5464 76.8767 27.5979 76.8767 27.6495C76.9893 27.5747 77.0976 27.4922 77.2153 27.4265C77.8207 27.0885 78.4216 27.3976 78.4626 28.0838C78.4901 28.5427 78.5002 29.0066 78.4602 29.4633C78.4488 29.5937 78.2353 29.7065 78.0744 29.8256Z" fill="#292929"/>
<path d="M67.7756 28.666C67.7695 29.1774 67.794 29.6409 67.7496 30.0978C67.6971 30.6379 67.3847 30.8701 66.757 30.918C65.9276 30.9814 65.5718 30.8143 65.3449 30.1349C65.6882 30.2059 65.961 30.2748 66.2379 30.3154C66.4452 30.3459 66.6985 30.4143 66.8562 30.3282C66.9981 30.2508 67.0378 29.9861 67.123 29.8033C67.0042 29.7489 66.9669 29.7165 66.9471 29.725C66.4248 29.9491 65.9063 30.0295 65.5066 29.5242C65.109 29.0214 65.134 28.4374 65.3587 27.8749C65.556 27.381 66.1414 27.2061 66.7138 27.392C66.8652 27.4411 67.0496 27.4256 67.2117 27.3978C67.5453 27.3407 67.7988 27.3536 67.7781 27.7962C67.7653 28.0687 67.7756 28.3422 67.7756 28.666ZM67.0779 28.3006C66.9142 27.9359 66.6214 27.8348 66.279 27.9838C65.9214 28.1394 65.8885 28.4758 65.9558 28.8145C66.0242 29.1585 66.2759 29.2819 66.5995 29.2663C66.9835 29.2477 67.1398 28.9623 67.0779 28.3006Z" fill="#292929"/>
<path d="M37.4528 28.391C37.6833 27.3492 38.053 27.1693 39.3404 27.4998C39.3404 27.0921 39.3144 26.7043 39.3551 26.3236C39.3686 26.1966 39.5527 26.0878 39.6589 25.9707C39.7716 26.082 39.9796 26.1908 39.9824 26.3048C40.0089 27.3631 39.9942 28.4224 40.005 29.4813C40.0082 29.8014 39.8318 29.8347 39.5777 29.833C39.3179 29.8313 39.0526 29.8374 38.7989 29.8874C37.9577 30.0531 37.4598 29.5242 37.4528 28.391ZM39.3157 28.2893C39.1275 27.919 38.7818 27.7647 38.482 28.0075C38.2857 28.1665 38.1949 28.5627 38.2083 28.8455C38.2233 29.1621 38.5094 29.3328 38.8484 29.2707C39.2597 29.1954 39.3978 28.9106 39.3649 28.5194C39.3607 28.4686 39.3503 28.4183 39.3157 28.2893Z" fill="#292929"/>
<path d="M5.17657 3.99682C10.8553 -1.67179 20.4688 -1.26155 25.7419 4.91486C25.7486 4.95561 25.7291 4.97706 25.6964 4.96525C25.4202 4.7425 25.1623 4.54587 24.9355 4.31828C23.5235 2.90171 21.8947 1.81319 20.024 1.10676C17.4579 0.137746 14.8193 -0.0744186 12.1346 0.484062C10.3296 0.859527 8.65589 1.56316 7.15918 2.65947C6.51883 3.12852 5.87228 3.58909 5.21562 4.03929C5.20268 4.02506 5.17657 3.99682 5.17657 3.99682Z" fill="#95C22B"/>
<path d="M63.2281 29.4119C63.221 29.0618 63.2206 28.7543 63.2104 28.4472C63.2013 28.1715 63.1242 27.8678 62.7971 27.9392C62.5837 27.9857 62.3165 28.2162 62.2533 28.42C62.1561 28.7336 62.2017 29.0953 62.2087 29.4361C62.2146 29.7221 62.0911 29.8879 61.8177 29.8008C61.6799 29.7568 61.5039 29.5647 61.4953 29.43C61.4606 28.8859 61.4976 28.3376 61.4823 27.7916C61.4693 27.3321 61.7365 27.3586 62.0557 27.4059C62.2327 27.4322 62.4376 27.4678 62.5934 27.4065C63.3671 27.1018 63.8994 27.414 63.9303 28.236C63.9494 28.7425 63.9338 29.2503 63.9338 29.7871C63.6017 29.7768 63.2302 30.0112 63.2281 29.4119Z" fill="#292929"/>
<path d="M53.7883 27.3078C54.6638 27.3379 55.0472 27.6205 55.1703 28.2778C55.232 28.6071 55.1802 28.8071 54.7742 28.7836C54.3527 28.7593 53.9287 28.7782 53.4941 28.7782C53.592 29.2596 53.8644 29.3961 54.2645 29.2196C54.6511 29.0491 54.6511 29.0491 55.0438 29.3115C54.8026 29.8177 54.3499 29.9226 53.8625 29.9104C53.3649 29.898 52.9742 29.6784 52.7963 29.1805C52.4858 28.3112 52.8532 27.5948 53.7883 27.3078ZM53.9815 27.9047C53.8005 27.9858 53.6194 28.0668 53.4384 28.1479C53.4585 28.2009 53.4785 28.2539 53.4986 28.307C53.7948 28.307 54.091 28.307 54.3872 28.307C54.407 28.2655 54.4268 28.224 54.4467 28.1825C54.3161 28.0925 54.1856 28.0025 53.9815 27.9047Z" fill="#292929"/>
<path d="M84.3117 27.9743C84.6872 27.4052 85.1834 27.1937 85.7758 27.3426C86.2757 27.4682 86.5484 27.8102 86.6462 28.3072C86.7091 28.6268 86.6147 28.7948 86.2579 28.7828C85.8244 28.7682 85.3899 28.7793 84.8697 28.7793C85.1018 29.3106 85.4274 29.4003 85.7668 29.1901C86.0959 28.9863 86.2921 29.0934 86.5155 29.3061C86.0992 29.8962 85.4079 30.0887 84.8148 29.7909C84.2173 29.4908 84.0328 28.8603 84.3117 27.9743ZM85.3879 28.3544C85.558 28.3374 85.7281 28.3204 85.8982 28.3034C85.9091 28.2394 85.9199 28.1754 85.9308 28.1114C85.7337 28.0421 85.5353 27.9173 85.3399 27.9217C85.1918 27.925 85.0475 28.0932 84.9015 28.188C84.9232 28.2287 84.945 28.2693 84.9667 28.31C85.0793 28.3244 85.1918 28.3389 85.3879 28.3544Z" fill="#292929"/>
<path d="M43.4956 29.1695C43.5409 29.2801 43.602 29.4066 43.5623 29.4692C43.3042 29.8765 42.5493 30.0397 42.0242 29.8207C41.4881 29.5971 41.2079 28.9843 41.3351 28.3141C41.4518 27.6992 41.921 27.3242 42.5793 27.3196C43.2194 27.315 43.6391 27.6384 43.767 28.2221C43.8494 28.5979 43.7752 28.8181 43.3231 28.7894C42.9269 28.7643 42.5278 28.7842 42.0708 28.7842C42.2449 29.3769 42.5623 29.3063 42.9117 29.2097C43.0876 29.1611 43.2799 29.1719 43.4956 29.1695ZM42.1462 28.0881C42.2004 28.1759 42.246 28.3315 42.3103 28.3396C42.5504 28.3697 42.7965 28.3516 43.0869 28.3516C42.8143 27.8407 42.6999 27.8109 42.1462 28.0881Z" fill="#292929"/>
<path d="M49.6593 28.7603C49.4821 28.3188 49.3165 27.9148 49.1516 27.5127C49.7477 27.2663 49.9062 27.3292 50.0705 27.8323C50.1782 28.162 50.2851 28.4919 50.4968 28.8144C50.598 28.5161 50.7266 28.2239 50.7942 27.9181C50.9028 27.4268 51.1684 27.2665 51.7372 27.4615C51.6228 27.7558 51.5123 28.0444 51.3983 28.3317C51.2604 28.6797 51.116 29.0253 50.9811 29.3745C50.8864 29.6195 50.7993 29.819 50.461 29.834C50.0901 29.8505 49.9989 29.6247 49.8962 29.3676C49.8205 29.1779 49.7459 28.9878 49.6593 28.7603Z" fill="#292929"/>
<path d="M88.02 29.2273C88.248 29.2726 88.4447 29.3591 88.648 29.3796C88.757 29.3905 88.8774 29.2877 88.9927 29.2362C88.9208 29.1377 88.8686 29.0077 88.7727 28.9475C88.6014 28.8401 88.3664 28.8143 88.2263 28.6821C88.0455 28.5115 87.8162 28.2673 87.8206 28.0593C87.8253 27.8389 88.0333 27.555 88.234 27.4202C88.6679 27.1287 89.2527 27.2864 89.6549 27.7444C89.4753 27.9462 89.3163 28.0793 89.0147 27.8927C88.9066 27.8259 88.6948 27.9268 88.5303 27.9511C88.6285 28.0677 88.7076 28.2135 88.8297 28.2939C88.9977 28.4044 89.2127 28.4431 89.3822 28.552C89.8663 28.8628 89.8772 29.5509 89.3487 29.7356C88.9541 29.8736 88.4631 29.8149 88.0329 29.7403C87.7986 29.6997 87.6247 29.442 88.02 29.2273Z" fill="#292929"/>
<path d="M73.1809 27.6692C73.0711 27.9961 72.8947 28.0478 72.5981 27.8979C72.4765 27.8365 72.2773 27.9289 72.1134 27.9513C72.2091 28.067 72.2852 28.2126 72.4052 28.2914C72.5737 28.4021 72.7864 28.4441 72.9595 28.5495C73.3918 28.8124 73.4302 29.3333 73.0563 29.6737C72.6044 30.0852 71.7203 29.9649 71.3624 29.4429C71.6633 28.754 72.2436 29.7654 72.6373 29.1407C72.357 28.9885 72.0791 28.84 71.8033 28.6875C71.3749 28.4505 71.2201 28.0583 71.4678 27.7224C71.5893 27.5576 71.7969 27.4183 71.9936 27.3548C72.4257 27.2153 72.8384 27.2812 73.1809 27.6692Z" fill="#292929"/>
<path d="M92.108 10.0721C92.0774 9.12432 92.4447 8.42519 93.2376 7.99756C93.9685 7.60333 94.7252 7.61655 95.4273 8.08094C96.2908 8.65209 96.6285 9.71736 96.2775 10.648C95.9251 11.5821 95.0099 12.1436 94.0065 12.0411C93.0113 11.9395 92.2847 11.2021 92.108 10.0721ZM92.9192 8.50308C92.3174 9.13199 92.1305 9.86177 92.4869 10.664C92.8202 11.4144 93.4308 11.8203 94.2632 11.8238C95.1181 11.8274 95.8676 11.2573 96.1075 10.4582C96.3457 9.66491 96.0539 8.81447 95.3777 8.33091C94.6136 7.78452 93.82 7.82448 92.9192 8.50308Z" fill="#292929"/>
<path d="M27.5293 7.28935C29.3176 10.195 30.0869 13.3675 29.9934 16.7611C29.9446 18.5294 29.644 20.2542 29.0149 21.9503C28.9963 21.9808 28.9926 21.9782 28.998 21.9351C29.0513 21.589 29.0702 21.278 29.1521 20.9846C29.7786 18.7395 30.0573 16.4623 29.7215 14.1438C29.4292 12.1249 28.9442 10.1588 27.9069 8.36683C27.7213 8.04621 27.6144 7.68008 27.4857 7.32356C27.5002 7.31217 27.5293 7.28935 27.5293 7.28935Z" fill="#95C22B"/>
<path d="M82.1395 28.5532C82.1395 27.686 82.1395 26.8687 82.1395 26.0649C82.7731 25.8909 82.8438 25.9389 82.8459 26.528C82.8492 27.4497 82.8437 28.3715 82.8482 29.2932C82.8496 29.5809 82.8694 29.8468 82.4441 29.8279C82.0013 29.8082 82.1567 29.4936 82.1411 29.2686C82.1259 29.0478 82.1389 28.8251 82.1395 28.5532Z" fill="#292929"/>
<path d="M45.826 27.8441C45.8237 28.4223 45.8153 28.9494 45.8216 29.4763C45.8248 29.7449 45.6903 29.879 45.4507 29.8054C45.32 29.7653 45.1397 29.592 45.1371 29.4752C45.1133 28.4216 45.1119 27.3669 45.1411 26.3136C45.1444 26.1944 45.363 26.0264 45.5093 25.9892C45.5821 25.9708 45.8003 26.1916 45.8094 26.3147C45.8456 26.8052 45.8253 27.2998 45.826 27.8441Z" fill="#292929"/>
<path d="M57.4433 27.5063C57.6867 27.4441 57.906 27.4042 58.1253 27.3643C58.1339 27.5109 58.187 27.6754 58.1377 27.7988C58.0948 27.9059 57.9403 28.0289 57.8275 28.0369C57.3353 28.0714 57.1941 28.3661 57.193 28.7953C57.1925 29.0169 57.2312 29.2515 57.1704 29.4559C57.1273 29.6007 56.9472 29.7047 56.8283 29.8269C56.7095 29.7032 56.4977 29.5863 56.4882 29.4547C56.449 28.9118 56.4587 28.3639 56.4791 27.819C56.4845 27.6757 56.5646 27.4456 56.6599 27.4162C56.8056 27.3713 56.9939 27.4689 57.1652 27.5007C57.2487 27.5162 57.3345 27.5196 57.4433 27.5063Z" fill="#292929"/>
<path d="M70.9623 8.62961C70.4854 8.37086 70.0052 8.0643 69.5062 7.79218C67.8763 6.9033 66.195 6.87564 64.4999 7.57159C63.6249 7.93088 62.929 8.55401 62.2922 9.24317C62.2136 9.32814 62.1109 9.39068 61.9861 9.47483C63.5158 6.94394 67.216 6.15138 69.8999 7.79747C70.2732 8.02646 70.6014 8.32906 70.9623 8.62961Z" fill="#95C22B"/>
<path d="M80.6409 28.0759C80.6441 28.5659 80.6747 29.0108 80.6345 29.4493C80.622 29.5852 80.4174 29.7035 80.3008 29.8299C80.1766 29.7079 79.9555 29.5934 79.9453 29.4625C79.9045 28.9381 79.9304 28.4087 79.929 27.8811C79.9282 27.6104 79.9334 27.3594 80.3167 27.3688C80.6921 27.378 80.6374 27.6404 80.6416 27.8752C80.6425 27.9263 80.6413 27.9773 80.6409 28.0759Z" fill="#292929"/>
<path d="M47.3131 29.1508C47.3146 28.6271 47.2933 28.1489 47.3346 27.6762C47.3442 27.5662 47.5587 27.4141 47.6941 27.3962C47.7847 27.3842 47.9894 27.5716 47.9935 27.6756C48.0207 28.3682 48.0076 29.0623 48.0076 29.7437C47.3509 29.8871 47.3312 29.8701 47.3131 29.1508Z" fill="#292929"/>
<path d="M28.3012 23.6391C27.654 24.6946 27.0555 25.7842 26.345 26.7951C25.7293 27.671 24.9866 28.4577 24.26 29.2926C24.22 29.3014 24.1902 29.275 24.1965 29.2392C24.4607 28.8477 24.7023 28.4789 24.9792 28.1386C26.0311 26.846 27.1611 25.6117 27.8874 24.0838C27.9712 23.9076 28.1453 23.7743 28.2835 23.6256C28.2894 23.6301 28.3012 23.6391 28.3012 23.6391Z" fill="#95C22B"/>
<path d="M59.3424 29.6117C59.331 28.9726 59.3377 28.3765 59.3227 27.7809C59.3156 27.4993 59.4151 27.3812 59.7049 27.3816C60.0038 27.382 60.0251 27.5483 60.0222 27.7796C60.0141 28.424 60.0194 29.0686 60.0194 29.8447C59.7478 29.7676 59.5497 29.7113 59.3424 29.6117Z" fill="#292929"/>
<path d="M61.7224 9.85584C61.6058 10.3038 61.4825 10.7772 61.3154 11.2345C60.9091 12.347 60.9063 13.4611 61.2774 14.5753C61.4737 15.1646 61.71 15.7406 61.9285 16.3649C60.6174 14.2735 60.4651 12.0984 61.7224 9.85584Z" fill="#95C22B"/>
<path d="M24.2348 29.3147C23.1362 30.6801 22.0228 32.0322 20.8735 33.3959C20.8376 33.4076 20.8078 33.3784 20.818 33.3439C20.8892 33.1891 20.9305 33.0524 21.0143 32.9508C21.7368 32.0752 22.4607 31.2006 23.1978 30.3372C23.512 29.969 23.8584 29.6282 24.1902 29.275C24.1902 29.275 24.22 29.3014 24.2348 29.3147Z" fill="#95C22B"/>
<path d="M11.9821 36.7772C10.8604 35.4322 9.73858 34.0871 8.61443 32.7004C8.61206 32.6588 8.62676 32.6432 8.65938 32.6546C8.87694 32.8367 9.08366 32.9893 9.24312 33.1812C10.0459 34.1473 10.8412 35.1199 11.627 36.0998C11.7826 36.2938 11.8854 36.53 12.0049 36.7544C11.9973 36.762 11.9821 36.7772 11.9821 36.7772Z" fill="#95C22B"/>
<path d="M20.095 34.3066C19.201 35.4016 18.3072 36.4967 17.4128 37.5914C17.1973 37.8552 16.98 38.1177 16.7276 38.3864C16.6916 38.392 16.6864 38.3866 16.6956 38.3513C16.8098 38.1249 16.8884 37.9118 17.0246 37.7463C17.6501 36.9859 18.2837 36.2319 18.9305 35.4896C19.2938 35.0726 19.6884 34.6829 20.0754 34.2874C20.082 34.2938 20.095 34.3066 20.095 34.3066Z" fill="#95C22B"/>
<path d="M64.3391 22.8985C64.3535 23.2092 64.4996 23.3776 64.8449 23.346C65.4748 23.2883 66.1049 23.2329 66.7762 23.1709C66.6921 23.4662 66.4819 23.5726 66.1444 23.5589C65.4229 23.5297 64.6994 23.55 63.8587 23.55C64.0515 23.2826 64.1823 23.1011 64.3391 22.8985Z" fill="#95C22B"/>
<path d="M68.4708 17.0771C68.2793 17.4692 68.0781 17.8892 67.8289 18.2784C67.464 18.8481 67.0742 19.4026 66.6741 19.9484C66.559 20.1054 66.3723 20.21 66.1846 20.3484C66.9137 19.2692 67.6766 18.1801 68.4708 17.0771Z" fill="#95C22B"/>
<path d="M70.7055 17.5926C70.8416 17.2756 71.0189 16.9505 71.1774 16.6164C71.5381 15.8564 71.8887 15.0915 72.2456 14.3297C72.3236 14.1632 72.411 14.0011 72.5198 13.8197C72.3061 15.2354 71.5976 16.4441 70.7055 17.5926Z" fill="#95C22B"/>
<path d="M25.7584 4.94489C26.3453 5.69737 26.9224 6.46057 27.5144 7.25656C27.5293 7.28935 27.5002 7.31216 27.4586 7.30285C26.8544 6.52138 26.2917 5.74922 25.7291 4.97706C25.7291 4.97706 25.7486 4.95561 25.7584 4.94489Z" fill="#95C22B"/>
<path d="M66.1191 20.3686C66.1157 20.5041 66.1157 20.6751 66.0368 20.7936C65.6307 21.4034 65.2103 22.004 64.7802 22.5972C64.6953 22.7144 64.5464 22.7851 64.3909 22.8865C64.9319 22.0571 65.509 21.2185 66.1191 20.3686Z" fill="#95C22B"/>
<path d="M59.8788 26.0427C59.9163 26.2698 59.9531 26.4839 59.9102 26.6806C59.9004 26.7255 59.576 26.7728 59.4676 26.705C59.3596 26.6376 59.27 26.4116 59.298 26.2822C59.3574 26.0072 59.5708 25.91 59.8788 26.0427Z" fill="#292929"/>
<path d="M79.8819 26.4045C80.0252 26.2381 80.1528 26.0633 80.3234 25.9933C80.39 25.9659 80.6392 26.1648 80.6512 26.2771C80.6667 26.4226 80.5693 26.6548 80.4481 26.7253C80.168 26.8882 79.9779 26.7221 79.8819 26.4045Z" fill="#292929"/>
<path d="M47.314 26.5541C47.4022 26.3395 47.4855 26.1408 47.6248 25.996C47.6546 25.965 47.9525 26.0978 48.0087 26.2128C48.0644 26.3268 47.9876 26.6402 47.9397 26.6465C47.7422 26.6728 47.5336 26.6156 47.314 26.5541Z" fill="#292929"/>
<path d="M16.6941 38.3947C16.219 38.9157 15.7413 39.4339 15.2225 39.9551C15.1815 39.958 15.1633 39.9379 15.1752 39.9048C15.6868 39.3767 16.1866 38.8817 16.6864 38.3866C16.6864 38.3866 16.6916 38.392 16.6941 38.3947Z" fill="#95C22B"/>
<path d="M13.2821 38.3421C12.8587 37.8415 12.4353 37.3408 11.997 36.8087C11.9821 36.7772 11.9973 36.762 12.0387 36.7639C12.4976 37.2771 12.915 37.7885 13.3198 38.3104C13.3072 38.3209 13.2821 38.3421 13.2821 38.3421Z" fill="#95C22B"/>
<path d="M72.5442 11.4912C72.2674 10.8956 71.9946 10.2623 71.7269 9.58852C72.0041 10.1832 72.2761 10.8184 72.5442 11.4912Z" fill="#95C22B"/>
<path d="M28.998 21.9822C28.7847 22.5208 28.5696 23.0581 28.3278 23.6173C28.3012 23.6391 28.2894 23.6301 28.289 23.5852C28.5232 23.0196 28.7579 22.4989 28.9926 21.9782C28.9926 21.9782 28.9963 21.9808 28.998 21.9822Z" fill="#95C22B"/>
<path d="M14.407 39.5796C14.0422 39.188 13.6773 38.7963 13.2973 38.3734C13.2821 38.3421 13.3072 38.3209 13.3524 38.3221C13.7507 38.7261 14.1039 39.129 14.4445 39.5437C14.4319 39.5556 14.407 39.5796 14.407 39.5796Z" fill="#95C22B"/>
<path d="M72.6041 13.5457C72.5815 12.9969 72.5707 12.4068 72.5758 11.7774C72.5998 12.3269 72.6078 12.9156 72.6041 13.5457Z" fill="#95C22B"/>
<path d="M69.3672 19.5316C69.59 19.1408 69.8443 18.7354 70.1333 18.3215C69.9115 18.7143 69.6551 19.1156 69.3672 19.5316Z" fill="#95C22B"/>
<path d="M3.76649 5.56872C4.00816 5.26108 4.25891 4.96257 4.54904 4.65558C4.58841 4.6471 4.6127 4.67008 4.60101 4.70321C4.32412 5.02292 4.05892 5.3095 3.79372 5.59608C3.79372 5.59608 3.77557 5.57783 3.76649 5.56872Z" fill="#95C22B"/>
<path d="M71.7149 9.51338C71.2336 9.50061 71.1393 9.08945 70.9796 8.69515C71.2146 8.93367 71.4571 9.20824 71.7149 9.51338Z" fill="#95C22B"/>
<path d="M20.8524 33.4224C20.6306 33.718 20.3939 33.9989 20.1261 34.2932C20.095 34.3066 20.0819 34.2938 20.0856 34.2536C20.3288 33.9351 20.5683 33.6567 20.8078 33.3784C20.8078 33.3784 20.8376 33.4076 20.8524 33.4224Z" fill="#95C22B"/>
<path d="M8.6047 32.6665C8.37034 32.4181 8.14334 32.1619 7.90371 31.8725C7.89109 31.8392 7.89261 31.8372 7.92789 31.8431C8.18437 32.1137 8.40556 32.3785 8.62676 32.6432C8.62676 32.6432 8.61206 32.6588 8.6047 32.6665Z" fill="#95C22B"/>
<path d="M4.57631 4.63556C4.74933 4.42689 4.93445 4.22978 5.14807 4.01474C5.17656 3.99682 5.20266 4.02506 5.20939 4.07522C5.01498 4.30695 4.81384 4.48852 4.61269 4.67009C4.61269 4.67009 4.5884 4.64711 4.57631 4.63556Z" fill="#95C22B"/>
<path d="M68.7573 20.3618C68.8745 20.137 69.0239 19.9002 69.2079 19.6536C69.0915 19.8792 68.9405 20.1145 68.7573 20.3618Z" fill="#95C22B"/>
<path d="M66.8354 23.1474C66.9488 22.9249 67.0863 22.6784 67.259 22.4229C67.1492 22.6505 67.0044 22.8869 66.8354 23.1474Z" fill="#95C22B"/>
<path d="M67.7201 21.8058C67.8476 21.5767 68.0003 21.3402 68.1866 21.0926C68.062 21.3204 67.9036 21.5594 67.7201 21.8058Z" fill="#95C22B"/>
<path d="M68.2441 21.0794C68.3635 20.8579 68.515 20.6232 68.6998 20.3767C68.5808 20.5987 68.4285 20.8324 68.2441 21.0794Z" fill="#95C22B"/>
<path d="M70.1928 18.3102C70.3119 18.0875 70.4634 17.8531 70.6483 17.607C70.5295 17.8297 70.3774 18.0642 70.1928 18.3102Z" fill="#95C22B"/>
<path d="M61.9631 16.4901C62.1158 16.6457 62.276 16.8353 62.4367 17.0634C62.2817 16.9092 62.1261 16.7167 61.9631 16.4901Z" fill="#95C22B"/>
<path d="M14.8402 39.9731C14.709 39.8594 14.5777 39.7458 14.4268 39.6059C14.407 39.5796 14.4319 39.5556 14.4799 39.5501C14.6428 39.6756 14.7577 39.8064 14.8646 39.9462C14.8565 39.9552 14.8402 39.9731 14.8402 39.9731Z" fill="#95C22B"/>
<path d="M67.3168 22.4102C67.3948 22.2537 67.504 22.0835 67.6455 21.9005C67.5678 22.0573 67.4579 22.2269 67.3168 22.4102Z" fill="#95C22B"/>
<path d="M61.9019 9.54548C61.8915 9.60348 61.8541 9.68039 61.7905 9.77687C61.8011 9.71909 61.838 9.64174 61.9019 9.54548Z" fill="#95C22B"/>
<path d="M15.1907 39.9679C15.0955 39.9922 14.9911 40.0066 14.8634 39.997C14.8402 39.9731 14.8565 39.9552 14.9009 39.9479C15.018 39.9397 15.0906 39.9388 15.1633 39.9379C15.1633 39.9379 15.1815 39.958 15.1907 39.9679Z" fill="#95C22B"/>
<path d="M7.89134 31.84C7.86151 31.8238 7.83143 31.8067 7.79724 31.7629C7.79314 31.7361 7.78989 31.7405 7.81014 31.7539C7.8536 31.7884 7.87435 31.8117 7.89262 31.8372C7.89262 31.8372 7.8911 31.8392 7.89134 31.84Z" fill="#95C22B"/>
<path d="M69.2548 19.6428C69.2503 19.6246 69.2739 19.5972 69.3181 19.5523C69.32 19.5677 69.3014 19.6007 69.2548 19.6428Z" fill="#95C22B"/>
<path d="M7.9279 31.8431C7.87435 31.8117 7.85361 31.7884 7.81233 31.7524C7.61697 31.4171 7.48276 31.0615 7.25485 30.7824C6.31774 29.6347 5.32195 28.5341 4.40475 27.3713C3.28706 25.9543 2.28177 24.4811 1.56125 22.7879C0.640393 20.6238 0.178676 18.4042 0.209619 16.0807C0.230989 14.476 0.413934 12.8698 0.969465 11.353C1.45947 10.0151 2.03129 8.70358 2.63678 7.41316C2.92916 6.79006 3.38195 6.24222 3.77792 5.6282C4.05894 5.3095 4.32414 5.02292 4.60103 4.70321C4.81386 4.48852 5.01501 4.30695 5.22235 4.08944C5.87229 3.58909 6.51884 3.12851 7.15919 2.65947C8.6559 1.56315 10.3296 0.859525 12.1346 0.48406C14.8193 -0.0744208 17.4579 0.137744 20.024 1.10676C21.8947 1.81319 23.5235 2.90171 24.9355 4.31828C25.1623 4.54587 25.4202 4.7425 25.6964 4.96525C26.2917 5.74922 26.8544 6.52138 27.4441 7.31425C27.6144 7.68008 27.7213 8.04621 27.9069 8.36683C28.9442 10.1588 29.4292 12.1249 29.7216 14.1438C30.0573 16.4622 29.7786 18.7395 29.1521 20.9846C29.0702 21.278 29.0513 21.589 28.998 21.9351C28.7579 22.4989 28.5233 23.0196 28.2831 23.5807C28.1453 23.7743 27.9712 23.9076 27.8875 24.0839C27.1611 25.6117 26.0311 26.846 24.9792 28.1386C24.7024 28.4789 24.4607 28.8477 24.1965 29.2392C23.8584 29.6282 23.5121 29.969 23.1978 30.3371C22.4607 31.2006 21.7368 32.0752 21.0143 32.9508C20.9305 33.0524 20.8892 33.1891 20.818 33.3439C20.5683 33.6567 20.3288 33.9351 20.0791 34.2472C19.6884 34.6829 19.2939 35.0726 18.9306 35.4896C18.2838 36.2319 17.6501 36.9859 17.0246 37.7463C16.8884 37.9118 16.8098 38.1249 16.6956 38.3513C16.1866 38.8817 15.6869 39.3767 15.1752 39.9048C15.0906 39.9388 15.018 39.9397 14.909 39.9389C14.7577 39.8064 14.6428 39.6756 14.4925 39.5383C14.1039 39.129 13.7507 38.7261 13.365 38.3115C12.915 37.7885 12.4976 37.2771 12.0463 36.7563C11.8854 36.53 11.7826 36.2938 11.6271 36.0998C10.8412 35.1199 10.0459 34.1473 9.24313 33.1812C9.08368 32.9893 8.87695 32.8367 8.6594 32.6546C8.40557 32.3785 8.18438 32.1137 7.9279 31.8431ZM24.0876 14.6547C24.3721 13.3403 24.4587 12.0229 24.2191 10.6876C23.8839 8.81911 22.6378 7.67067 20.7446 7.73647C19.6857 7.77327 18.628 8.05047 17.5864 8.29147C17.026 8.42114 16.5008 8.70307 15.9597 8.9163C15.9645 8.98211 15.9692 9.04792 15.974 9.11373C16.4468 9.21459 16.9193 9.31717 17.3926 9.41576C17.7751 9.49541 18.1728 9.53129 18.535 9.66471C18.7005 9.72565 18.8818 9.96786 18.8956 10.1407C18.9055 10.2646 18.6599 10.512 18.51 10.5276C17.8757 10.5935 17.1954 10.7411 16.6043 10.585C15.5066 10.2952 14.4421 9.85395 13.3957 9.40193C12.1749 8.87462 11.0079 8.22154 9.78147 7.70922C8.5301 7.18646 7.4606 7.48646 6.74264 8.62381C6.31678 9.29843 5.97774 10.0984 5.85572 10.8819C5.35988 14.0658 5.98197 17.0249 7.87414 19.6824C8.02581 19.8955 8.0985 20.1993 8.1165 20.467C8.20234 21.7437 8.20743 23.0276 8.33604 24.2993C8.4617 25.5416 8.73493 26.7651 9.38792 27.8593C9.73271 28.4371 10.1843 28.9256 10.9237 28.879C11.6483 28.8333 11.9139 28.2339 12.1824 27.6732C12.2191 27.5965 12.2476 27.5149 12.2708 27.433C12.6061 26.2506 12.9014 25.055 13.2881 23.8897C13.532 23.1546 13.8354 22.4153 14.2532 21.7689C14.6468 21.1598 15.5281 21.2005 15.9761 21.7806C16.2321 22.1118 16.4542 22.5001 16.5754 22.8981C16.8286 23.7297 16.9757 24.5932 17.2204 25.4278C17.4832 26.3241 17.7042 27.2564 18.132 28.0745C18.6635 29.0911 19.8465 29.1243 20.5244 28.1959C20.8585 27.7383 21.1128 27.1907 21.276 26.6458C21.8914 24.5902 21.8919 22.4675 21.8778 20.3459C21.8762 20.1009 21.8876 19.8029 22.0184 19.6185C23.0665 18.1415 23.6694 16.4845 24.0876 14.6547Z" fill="#95C22B"/>
<path d="M24.0795 14.6972C23.6694 16.4845 23.0665 18.1415 22.0184 19.6185C21.8876 19.8029 21.8762 20.1009 21.8778 20.3459C21.8919 22.4675 21.8914 24.5902 21.276 26.6458C21.1128 27.1907 20.8585 27.7384 20.5244 28.1959C19.8465 29.1243 18.6635 29.0911 18.132 28.0745C17.7042 27.2564 17.4832 26.3241 17.2204 25.4278C16.9757 24.5932 16.8286 23.7297 16.5754 22.8981C16.4542 22.5001 16.232 22.1118 15.9761 21.7806C15.5281 21.2005 14.6468 21.1598 14.2532 21.7689C13.8354 22.4153 13.532 23.1546 13.2881 23.8897C12.9014 25.055 12.6061 26.2506 12.2708 27.433C12.2476 27.5149 12.2191 27.5965 12.1824 27.6732C11.9138 28.2339 11.6482 28.8334 10.9237 28.879C10.1842 28.9256 9.7327 28.4371 9.38791 27.8593C8.73492 26.7651 8.46169 25.5417 8.33604 24.2993C8.20742 23.0276 8.20233 21.7437 8.1165 20.467C8.09849 20.1993 8.0258 19.8955 7.87414 19.6824C5.98197 17.0249 5.35987 14.0658 5.85571 10.8819C5.97773 10.0984 6.31677 9.29844 6.74263 8.62381C7.46059 7.48646 8.53009 7.18647 9.78146 7.70922C11.0078 8.22154 12.1749 8.87462 13.3957 9.40194C14.4421 9.85395 15.5066 10.2952 16.6043 10.585C17.1954 10.7411 17.8757 10.5935 18.51 10.5276C18.6599 10.5121 18.9055 10.2646 18.8956 10.1407C18.8818 9.96786 18.7005 9.72565 18.535 9.66471C18.1728 9.53129 17.7751 9.49542 17.3926 9.41576C16.9193 9.31717 16.4468 9.21459 15.974 9.11373C15.9692 9.04792 15.9645 8.98211 15.9597 8.9163C16.5008 8.70307 17.026 8.42115 17.5864 8.29147C18.628 8.05047 19.6857 7.77328 20.7445 7.73647C22.6378 7.67067 23.8839 8.81911 24.2191 10.6876C24.4587 12.0229 24.3721 13.3403 24.0795 14.6972Z" fill="white"/>
<path d="M93.9555 8.66125C94.2075 8.66671 94.4156 8.64957 94.6165 8.68004C95.1532 8.76147 95.546 9.35763 95.2705 9.77359C95.0182 10.1544 94.9579 10.4517 95.2796 10.8099C94.6183 11.1873 94.6091 10.0535 94.0051 10.3699C94.0134 10.3609 93.9862 10.3824 93.9692 10.4101C93.8689 10.5742 93.7709 10.7398 93.6721 10.9048C93.5826 10.7177 93.4362 10.5366 93.4156 10.3422C93.3744 9.95363 93.4145 9.55724 93.3977 9.16509C93.3819 8.79364 93.5316 8.6197 93.9555 8.66125ZM94.6086 9.13659C93.9172 9.00848 93.8137 9.13447 94.0489 9.93987C94.2773 9.86901 94.5409 9.8442 94.7164 9.70688C94.7948 9.6455 94.6965 9.35825 94.6086 9.13659Z" fill="#292929"/>
</svg>
