<svg width="16" height="15" viewBox="0 0 16 15" fill="none" xmlns="http://www.w3.org/2000/svg">
<path d="M5.4946 4.89401L1.24126 5.51068L1.16593 5.52601C1.05189 5.55629 0.947927 5.61629 0.864659 5.69988C0.78139 5.78348 0.7218 5.88767 0.691972 6.00183C0.662145 6.11599 0.663149 6.23602 0.694883 6.34966C0.726616 6.46331 0.787942 6.56649 0.872597 6.64868L3.95393 9.64801L3.22726 13.8847L3.2186 13.958C3.21162 14.076 3.23611 14.1936 3.28956 14.299C3.34302 14.4044 3.42352 14.4937 3.52282 14.5577C3.62212 14.6217 3.73666 14.6582 3.8547 14.6634C3.97274 14.6686 4.09004 14.6424 4.1946 14.5873L7.9986 12.5873L11.7939 14.5873L11.8606 14.618C11.9706 14.6614 12.0902 14.6746 12.2071 14.6565C12.324 14.6384 12.4339 14.5895 12.5257 14.5149C12.6174 14.4402 12.6876 14.3425 12.7292 14.2318C12.7707 14.121 12.782 14.0012 12.7619 13.8847L12.0346 9.64801L15.1173 6.64801L15.1693 6.59135C15.2435 6.49986 15.2922 6.39032 15.3104 6.27388C15.3286 6.15744 15.3155 6.03827 15.2727 5.9285C15.2298 5.81874 15.1585 5.7223 15.0663 5.64902C14.974 5.57574 14.8639 5.52824 14.7473 5.51135L10.4939 4.89401L8.5926 1.04068C8.53758 0.929037 8.45241 0.835024 8.34672 0.769284C8.24104 0.703543 8.11906 0.668701 7.9946 0.668701C7.87013 0.668701 7.74816 0.703543 7.64247 0.769284C7.53679 0.835024 7.45161 0.929037 7.3966 1.04068L5.4946 4.89401Z" fill="#FFA500"/>
</svg>
