<svg width="312" height="32" viewBox="0 0 312 32" fill="none" xmlns="http://www.w3.org/2000/svg">
<g clip-path="url(#clip0_1_4282)">
<path d="M4.00002 28L6.20002 22.9333C4.51691 20.544 3.76358 17.6227 4.08142 14.7174C4.39925 11.8122 5.7664 9.12281 7.9263 7.15399C10.0862 5.18516 12.8904 4.07224 15.8125 4.02409C18.7347 3.97594 21.574 4.99586 23.7976 6.89246C26.0212 8.78905 27.4762 11.4319 27.8896 14.3251C28.303 17.2183 27.6463 20.1629 26.0428 22.6063C24.4393 25.0497 21.9993 26.824 19.1805 27.5961C16.3618 28.3682 13.3582 28.0851 10.7334 26.8L4.00002 28Z" stroke="#BDBDBD" stroke-width="2" stroke-linecap="round" stroke-linejoin="round"/>
<path d="M12 13.334C12 13.5108 12.0703 13.6804 12.1953 13.8054C12.3203 13.9304 12.4899 14.0007 12.6667 14.0007C12.8435 14.0007 13.0131 13.9304 13.1381 13.8054C13.2631 13.6804 13.3334 13.5108 13.3334 13.334V12.0007C13.3334 11.8238 13.2631 11.6543 13.1381 11.5292C13.0131 11.4042 12.8435 11.334 12.6667 11.334C12.4899 11.334 12.3203 11.4042 12.1953 11.5292C12.0703 11.6543 12 11.8238 12 12.0007V13.334ZM12 13.334C12 15.1021 12.7024 16.7978 13.9526 18.048C15.2029 19.2983 16.8986 20.0007 18.6667 20.0007M18.6667 20.0007H20C20.1768 20.0007 20.3464 19.9304 20.4714 19.8054C20.5965 19.6804 20.6667 19.5108 20.6667 19.334C20.6667 19.1572 20.5965 18.9876 20.4714 18.8626C20.3464 18.7376 20.1768 18.6673 20 18.6673H18.6667C18.4899 18.6673 18.3203 18.7376 18.1953 18.8626C18.0703 18.9876 18 19.1572 18 19.334C18 19.5108 18.0703 19.6804 18.1953 19.8054C18.3203 19.9304 18.4899 20.0007 18.6667 20.0007Z" stroke="#BDBDBD" stroke-width="2" stroke-linecap="round" stroke-linejoin="round"/>
</g>
<g clip-path="url(#clip1_1_4282)">
<path d="M61.3339 5.33398L76.9779 26.6673H82.6673L67.0233 5.33398H61.3339Z" stroke="#BDBDBD" stroke-width="2" stroke-linecap="round" stroke-linejoin="round"/>
<path d="M61.3339 26.6673L70.3579 17.6433M73.6379 14.3633L82.6673 5.33398" stroke="#BDBDBD" stroke-width="2" stroke-linecap="round" stroke-linejoin="round"/>
</g>
<g clip-path="url(#clip2_1_4282)">
<path d="M117.333 8.00065C117.333 7.29341 117.614 6.61513 118.114 6.11503C118.614 5.61494 119.292 5.33398 119.999 5.33398H135.999C136.707 5.33398 137.385 5.61494 137.885 6.11503C138.385 6.61513 138.666 7.29341 138.666 8.00065V24.0007C138.666 24.7079 138.385 25.3862 137.885 25.8863C137.385 26.3864 136.707 26.6673 135.999 26.6673H119.999C119.292 26.6673 118.614 26.3864 118.114 25.8863C117.614 25.3862 117.333 24.7079 117.333 24.0007V8.00065Z" stroke="#BDBDBD" stroke-width="2" stroke-linecap="round" stroke-linejoin="round"/>
<path d="M122.667 14.667V21.3337" stroke="#BDBDBD" stroke-width="2" stroke-linecap="round" stroke-linejoin="round"/>
<path d="M122.667 10.667V10.6803" stroke="#BDBDBD" stroke-width="2" stroke-linecap="round" stroke-linejoin="round"/>
<path d="M128 21.3337V14.667" stroke="#BDBDBD" stroke-width="2" stroke-linecap="round" stroke-linejoin="round"/>
<path d="M133.333 21.3337V17.3337C133.333 16.6264 133.052 15.9481 132.552 15.448C132.052 14.9479 131.374 14.667 130.667 14.667C129.959 14.667 129.281 14.9479 128.781 15.448C128.281 15.9481 128 16.6264 128 17.3337" stroke="#BDBDBD" stroke-width="2" stroke-linecap="round" stroke-linejoin="round"/>
</g>
<g clip-path="url(#clip3_1_4282)">
<path d="M173.333 10.6673C173.333 9.25283 173.895 7.89628 174.895 6.89608C175.895 5.89589 177.252 5.33398 178.666 5.33398H189.333C190.747 5.33398 192.104 5.89589 193.104 6.89608C194.104 7.89628 194.666 9.25283 194.666 10.6673V21.334C194.666 22.7485 194.104 24.105 193.104 25.1052C192.104 26.1054 190.747 26.6673 189.333 26.6673H178.666C177.252 26.6673 175.895 26.1054 174.895 25.1052C173.895 24.105 173.333 22.7485 173.333 21.334V10.6673Z" stroke="#BDBDBD" stroke-width="2" stroke-linecap="round" stroke-linejoin="round"/>
<path d="M180 16C180 17.0609 180.421 18.0783 181.172 18.8284C181.922 19.5786 182.939 20 184 20C185.061 20 186.078 19.5786 186.828 18.8284C187.579 18.0783 188 17.0609 188 16C188 14.9391 187.579 13.9217 186.828 13.1716C186.078 12.4214 185.061 12 184 12C182.939 12 181.922 12.4214 181.172 13.1716C180.421 13.9217 180 14.9391 180 16Z" stroke="#BDBDBD" stroke-width="2" stroke-linecap="round" stroke-linejoin="round"/>
<path d="M190 10V10.0133" stroke="#BDBDBD" stroke-width="2" stroke-linecap="round" stroke-linejoin="round"/>
</g>
<g clip-path="url(#clip4_1_4282)">
<path d="M233.333 13.3333V18.6667H237.333V28H242.666V18.6667H246.666L247.999 13.3333H242.666V10.6667C242.666 10.313 242.807 9.97391 243.057 9.72386C243.307 9.47381 243.646 9.33333 243.999 9.33333H247.999V4H243.999C242.231 4 240.536 4.70238 239.285 5.95262C238.035 7.20286 237.333 8.89856 237.333 10.6667V13.3333H233.333Z" stroke="#BDBDBD" stroke-width="2" stroke-linecap="round" stroke-linejoin="round"/>
</g>
<g clip-path="url(#clip5_1_4282)">
<path d="M290.666 26.667L296 14.667" stroke="#BDBDBD" stroke-width="2" stroke-linecap="round" stroke-linejoin="round"/>
<path d="M294.267 18.6673C294.849 20.3513 296.173 21.334 297.667 21.334C300.428 21.334 302.667 19.262 302.667 16.0007C302.668 15.0271 302.456 14.0651 302.045 13.1823C301.635 12.2994 301.036 11.5172 300.291 10.8906C299.546 10.264 298.672 9.80817 297.732 9.55519C296.792 9.3022 295.808 9.25819 294.849 9.42626C293.89 9.59432 292.98 9.97038 292.182 10.528C291.384 11.0856 290.717 11.8112 290.23 12.6539C289.742 13.4966 289.445 14.4358 289.359 15.4056C289.273 16.3754 289.401 17.3522 289.733 18.2673" stroke="#BDBDBD" stroke-width="2" stroke-linecap="round" stroke-linejoin="round"/>
<path d="M284 16C284 17.5759 284.31 19.1363 284.913 20.5922C285.516 22.0481 286.4 23.371 287.515 24.4853C288.629 25.5996 289.952 26.4835 291.408 27.0866C292.864 27.6896 294.424 28 296 28C297.576 28 299.136 27.6896 300.592 27.0866C302.048 26.4835 303.371 25.5996 304.485 24.4853C305.6 23.371 306.483 22.0481 307.086 20.5922C307.69 19.1363 308 17.5759 308 16C308 14.4241 307.69 12.8637 307.086 11.4078C306.483 9.95189 305.6 8.62902 304.485 7.51472C303.371 6.40042 302.048 5.5165 300.592 4.91345C299.136 4.31039 297.576 4 296 4C294.424 4 292.864 4.31039 291.408 4.91345C289.952 5.5165 288.629 6.40042 287.515 7.51472C286.4 8.62902 285.516 9.95189 284.913 11.4078C284.31 12.8637 284 14.4241 284 16Z" stroke="#BDBDBD" stroke-width="2" stroke-linecap="round" stroke-linejoin="round"/>
</g>
<defs>
<clipPath id="clip0_1_4282">
<rect width="32" height="32" fill="white"/>
</clipPath>
<clipPath id="clip1_1_4282">
<rect width="32" height="32" fill="white" transform="translate(56)"/>
</clipPath>
<clipPath id="clip2_1_4282">
<rect width="32" height="32" fill="white" transform="translate(112)"/>
</clipPath>
<clipPath id="clip3_1_4282">
<rect width="32" height="32" fill="white" transform="translate(168)"/>
</clipPath>
<clipPath id="clip4_1_4282">
<rect width="32" height="32" fill="white" transform="translate(224)"/>
</clipPath>
<clipPath id="clip5_1_4282">
<rect width="32" height="32" fill="white" transform="translate(280)"/>
</clipPath>
</defs>
</svg>
