<svg width="16" height="17" viewBox="0 0 16 17" fill="none" xmlns="http://www.w3.org/2000/svg">
<g clip-path="url(#clip0_154_1051)">
<path d="M8.00065 14.972C4.31865 14.972 1.33398 11.9873 1.33398 8.30534C1.33398 4.62334 4.31865 1.63867 8.00065 1.63867C11.6827 1.63867 14.6673 4.62334 14.6673 8.30534C14.6673 11.9873 11.6827 14.972 8.00065 14.972ZM8.00065 13.6387C9.41514 13.6387 10.7717 13.0768 11.7719 12.0766C12.7721 11.0764 13.334 9.71983 13.334 8.30534C13.334 6.89085 12.7721 5.5343 11.7719 4.5341C10.7717 3.53391 9.41514 2.97201 8.00065 2.97201C6.58616 2.97201 5.22961 3.53391 4.22941 4.5341C3.22922 5.5343 2.66732 6.89085 2.66732 8.30534C2.66732 9.71983 3.22922 11.0764 4.22941 12.0766C5.22961 13.0768 6.58616 13.6387 8.00065 13.6387ZM8.66732 8.30534H11.334V9.63867H7.33398V4.972H8.66732V8.30534Z" fill="#707070"/>
</g>
<defs>
<clipPath id="clip0_154_1051">
<rect width="16" height="16" fill="white" transform="translate(0 0.305176)"/>
</clipPath>
</defs>
</svg>
