<svg width="80" height="80" viewBox="0 0 80 80" fill="none" xmlns="http://www.w3.org/2000/svg">
<rect width="80" height="80" rx="9.6" fill="#FFEEFA"/>
<g clip-path="url(#clip0_29_276)">
<path d="M58 40.0001C57.9999 36.5226 56.9925 33.1196 55.0996 30.2024C53.2067 27.2853 50.5093 24.9789 47.3335 23.5621C44.1577 22.1453 40.6395 21.6788 37.2042 22.2189C33.7689 22.7591 30.5637 24.2827 27.9759 26.6057C25.3881 28.9287 23.5286 31.9516 22.6222 35.3088C21.7158 38.6661 21.8013 42.2141 22.8684 45.5238C23.9354 48.8335 25.9384 51.7633 28.6351 53.9589C31.3317 56.1546 34.6067 57.5221 38.064 57.8961" stroke="#F039B3" stroke-width="3" stroke-linecap="round" stroke-linejoin="round"/>
<path d="M23.2 34H56.8" stroke="#F039B3" stroke-width="3" stroke-linecap="round" stroke-linejoin="round"/>
<path d="M23.2 46H36" stroke="#F039B3" stroke-width="3" stroke-linecap="round" stroke-linejoin="round"/>
<path d="M39 22C36.4577 26.0739 34.8071 30.6401 34.1569 35.3979C33.5068 40.1558 33.8718 44.9974 35.228 49.604" stroke="#F039B3" stroke-width="3" stroke-linecap="round" stroke-linejoin="round"/>
<path d="M41 22C44.015 26.8284 45.768 32.3372 46.098 38.02" stroke="#F039B3" stroke-width="3" stroke-linecap="round" stroke-linejoin="round"/>
<path d="M51.6 57.6339L47.256 59.91C47.1271 59.977 46.9821 60.007 46.8371 59.9964C46.6922 59.9859 46.553 59.9353 46.4352 59.8502C46.3173 59.7651 46.2255 59.649 46.1698 59.5148C46.1141 59.3805 46.0969 59.2334 46.12 59.09L46.95 54.268L43.436 50.854C43.3311 50.7526 43.2568 50.6237 43.2217 50.4821C43.1865 50.3405 43.1919 50.1919 43.2371 50.0532C43.2824 49.9146 43.3657 49.7914 43.4776 49.6978C43.5895 49.6042 43.7255 49.544 43.87 49.5239L48.726 48.82L50.898 44.434C50.9629 44.3033 51.0631 44.1934 51.1871 44.1166C51.3111 44.0397 51.4541 43.999 51.6 43.999C51.7459 43.999 51.8889 44.0397 52.0129 44.1166C52.1369 44.1934 52.237 44.3033 52.302 44.434L54.474 48.82L59.33 49.5239C59.4741 49.5447 59.6095 49.6053 59.7209 49.699C59.8323 49.7927 59.9153 49.9157 59.9604 50.054C60.0056 50.1924 60.0111 50.3407 59.9764 50.482C59.9417 50.6234 59.8681 50.7522 59.764 50.854L56.25 54.268L57.078 59.088C57.1028 59.2317 57.0869 59.3795 57.0319 59.5146C56.977 59.6498 56.8853 59.7668 56.7672 59.8524C56.6491 59.938 56.5093 59.9888 56.3638 59.9989C56.2183 60.0091 56.0729 59.9783 55.944 59.91L51.6 57.6339Z" stroke="#F039B3" stroke-width="3" stroke-linecap="round" stroke-linejoin="round"/>
</g>
<defs>
<clipPath id="clip0_29_276">
<rect width="48" height="48" fill="white" transform="translate(16 16)"/>
</clipPath>
</defs>
</svg>
